<svg width="151" height="150" viewBox="0 0 151 150" fill="none" xmlns="http://www.w3.org/2000/svg">
<path d="M140.073 109.339V47.3232C140.073 46.711 139.831 46.125 139.398 45.6924C138.965 45.2598 138.379 45.0172 137.767 45.0172H98.5622V28.8732C98.5576 24.5932 96.8547 20.4893 93.829 17.4635C90.802 14.4365 86.6981 12.7335 82.4181 12.7291H59.3559C55.0759 12.7337 50.972 14.4366 47.9463 17.4635C44.9193 20.4893 43.2163 24.5932 43.2119 28.8732V45.0172H13.2295C11.9557 45.0172 10.9235 46.0495 10.9235 47.3232V109.339L6.36517 129.848C6.21411 130.531 6.38005 131.246 6.81836 131.791C7.25553 132.337 7.917 132.655 8.61737 132.655H142.381C143.08 132.655 143.742 132.337 144.18 131.791C144.617 131.246 144.783 130.531 144.632 129.848L140.073 109.339ZM82.417 17.3408C85.475 17.3442 88.4056 18.5596 90.5674 20.7213C92.7292 22.8831 93.9456 25.814 93.9491 28.8717V45.0158H84.7241V28.8717C84.7253 24.5299 82.972 20.371 79.8626 17.3408H82.417ZM70.886 17.5719V17.5708C73.4896 18.1064 75.8275 19.522 77.5086 21.581C79.1886 23.6397 80.1075 26.2146 80.111 28.8721V45.0161H61.6607V28.8721C61.6641 26.2148 62.5842 23.6399 64.2642 21.5821C65.9442 19.5234 68.2836 18.1078 70.886 17.5719ZM47.8238 28.8717C47.8273 25.8137 49.0426 22.8832 51.2044 20.7214C53.3662 18.5596 56.2982 17.3443 59.3548 17.3408H61.9091C58.7998 20.3713 57.0464 24.53 57.0488 28.8717V45.0158H47.8238L47.8238 28.8717ZM107.786 109.339L103.629 128.042H11.4904L15.4798 110.091C15.5153 109.928 15.5336 109.76 15.5336 109.591V49.6295H43.2089V56.5485C43.2089 57.8223 44.2423 58.8545 45.516 58.8545C46.7897 58.8545 47.822 57.8223 47.822 56.5485V49.6295H80.1101V56.5485C80.1101 57.8223 81.1423 58.8545 82.416 58.8545C83.6898 58.8545 84.7232 57.8223 84.7232 56.5485V49.6295H107.785L107.786 109.339ZM112.344 110.092C112.38 109.928 112.398 109.76 112.398 109.591V49.6296H121.623V113.157L109.257 123.976L112.344 110.092ZM111.617 128.042L123.93 117.268L136.241 128.042H111.617ZM126.236 113.157V49.6301H135.461V109.592C135.461 109.76 135.479 109.928 135.516 110.092L138.6 123.977L126.236 113.157Z" fill="black"/>
<path d="M61.6631 58.8545C53.7116 58.8545 46.0853 62.013 40.463 67.6356C34.8406 73.258 31.6818 80.8846 31.6818 88.8357C31.6818 96.7869 34.8403 104.413 40.463 110.036C46.0856 115.658 53.7119 118.817 61.6631 118.817C69.6142 118.817 77.2408 115.658 82.8632 110.036C88.4855 104.413 91.6443 96.7869 91.6443 88.8357C91.6352 80.8866 88.4744 73.2659 82.8529 67.6459C77.2326 62.0244 69.6122 58.8636 61.6631 58.8545ZM87.0324 88.8369C87.0381 93.8563 85.5458 98.7636 82.7466 102.93L82.4193 97.9863V74.2673C85.4269 78.5303 87.0382 83.6206 87.0324 88.8366L87.0324 88.8369ZM77.8074 95.7559H73.1943C73.1943 94.8828 72.7011 94.084 71.9194 93.6926L68.7393 92.103H68.7404C69.141 88.8689 69.8516 85.6817 70.8633 82.5838C72.636 77.3687 74.9649 74.1953 77.8064 73.1127L77.8074 95.7559ZM73.0478 100.368H77.9551L78.4495 107.841H78.4483C76.6012 109.476 74.5252 110.834 72.2869 111.87L73.0478 100.368ZM57.9324 81.9176L55.6264 86.5295L49.2508 86.5306L46.9449 81.9187L57.9324 81.9176ZM50.0132 91.1426H54.8653L56.0635 113.581H56.0624C53.5687 113.017 51.1745 112.076 48.9626 110.791L50.0132 91.1426ZM36.2952 88.8366C36.2895 83.6203 37.9008 78.5299 40.9071 74.2673V79.6116H40.9117C40.9094 79.9698 40.9918 80.3223 41.1509 80.6427L45.4903 89.3231L44.5187 107.517C39.2761 102.721 36.2917 95.9423 36.2952 88.8366ZM60.7147 114.185L59.3861 89.3229L63.7255 80.6437V80.6426C63.8846 80.3221 63.967 79.9697 63.9647 79.6115H63.9693V70.3865C63.9693 69.1127 62.937 68.0805 61.6633 68.0805C60.3896 68.0805 59.3573 69.1127 59.3573 70.3865V77.3055H54.7442V70.3865C54.7442 69.1127 53.712 68.0805 52.4382 68.0805C51.1645 68.0805 50.1323 69.1127 50.1323 70.3865V77.3055H45.5203V70.3865C45.5192 70.0637 45.4517 69.7456 45.3201 69.4503C49.6997 65.7481 55.2078 63.6425 60.94 63.4776C66.6734 63.3139 72.2925 65.1015 76.8769 68.5486C65.7177 71.9063 64.0481 92.3318 63.976 93.2769C63.9062 94.2096 64.4075 95.0931 65.244 95.5119L68.5824 97.1805L67.5559 113.513C65.6253 113.975 63.6477 114.206 61.6634 114.206C61.3464 114.206 61.0294 114.198 60.7147 114.186L60.7147 114.185Z" fill="black"/>
</svg>
