<svg width="151" height="150" viewBox="0 0 151 150" fill="none" xmlns="http://www.w3.org/2000/svg">
<path d="M57.0488 31.1807H93.9482C96.419 31.1807 98.7031 29.8624 99.9392 27.721C101.175 25.581 101.175 22.943 99.9392 20.8032C98.7032 18.662 96.4188 17.3435 93.9482 17.3435H57.0488C54.5769 17.3435 52.2928 18.6619 51.0567 20.8032C49.8208 22.9432 49.8208 25.5812 51.0567 27.721C52.2927 29.8622 54.5771 31.1807 57.0488 31.1807ZM57.0488 21.9557H93.9482C95.222 21.9557 96.2542 22.988 96.2542 24.2617C96.2542 25.5354 95.222 26.5688 93.9482 26.5688H57.0488C55.7751 26.5688 54.7417 25.5354 54.7417 24.2617C54.7417 22.988 55.7751 21.9557 57.0488 21.9557Z" fill="black"/>
<path d="M144.497 62.5488L134.636 39.8678C135.16 39.4306 135.463 38.7829 135.463 38.0997V19.6494C135.46 16.5914 134.243 13.6608 132.081 11.499C129.92 9.33716 126.989 8.12192 123.932 8.11841H31.6822C30.7644 8.11841 29.9336 8.66316 29.5674 9.50544L29.5616 9.51803L29.5548 9.53291L6.50398 62.5485H6.50513C6.37924 62.8392 6.31401 63.1528 6.31287 63.4686V132.656C6.31287 133.267 6.55662 133.854 6.98921 134.287C7.42181 134.718 8.00775 134.962 8.62 134.962H142.384C142.995 134.962 143.582 134.718 144.014 134.287C144.446 133.854 144.69 133.267 144.69 132.656V63.4686C144.69 63.1528 144.624 62.8404 144.499 62.5497L144.497 62.5488ZM29.375 37.207L16.2955 51.5944L29.375 21.5124V37.207ZM32.7017 40.4057H103.77L94.7463 61.1619H13.8313L32.7017 40.4057ZM117.012 21.5127V38.0997C117.012 38.7108 117.255 39.2979 117.687 39.7305C118.12 40.1631 118.707 40.4057 119.318 40.4057H129.839L138.862 61.162H99.7717L117.012 21.5127ZM121.624 12.7304H123.931C125.765 12.7327 127.524 13.4628 128.821 14.7594C130.118 16.056 130.847 17.8151 130.849 19.6494V35.7934H121.624L121.624 12.7304ZM115.801 12.7304L105.774 35.7926L33.9849 35.7937V12.7304L115.801 12.7304ZM10.9245 65.7753H93.9489V130.349H10.9245V65.7753ZM98.5631 130.349V65.7753H140.077V130.349H98.5631Z" fill="black"/>
<path d="M87.0313 93.4512C87.029 91.6167 86.2989 89.8576 85.0022 88.5612C83.7056 87.2635 81.9466 86.5345 80.1123 86.5322H58.9591C59.5553 84.8499 59.4775 83.0028 58.7428 81.3777C58.0081 79.7515 56.6737 78.472 55.0177 77.8082C55.3164 76.8869 55.9687 76.1236 56.8316 75.6853C57.6155 75.2813 58.4761 75.049 59.3561 75.0009C60.6299 75.0009 61.6621 73.9675 61.6621 72.6938C61.6621 71.4201 60.6299 70.3878 59.3561 70.3878C57.7906 70.4324 56.2548 70.817 54.8529 71.5151C52.4451 72.7087 50.7572 74.9873 50.3186 77.6399C48.5391 78.2109 47.0661 79.4789 46.2364 81.1543C45.4067 82.8297 45.2911 84.7696 45.9148 86.5318H24.7616C22.9283 86.5341 21.1692 87.263 19.8717 88.5608C18.575 89.8574 17.846 91.6165 17.8438 93.4508V123.433C17.8438 124.044 18.0864 124.631 18.519 125.064C18.9516 125.497 19.5375 125.739 20.1497 125.739H84.7259C85.337 125.739 85.9241 125.497 86.3567 125.064C86.7882 124.631 87.0319 124.044 87.0319 123.433L87.0313 93.4512ZM50.1319 84.2262C50.133 83.1367 50.8952 82.1971 51.9606 81.9694C52.2753 82.0369 52.6015 82.0369 52.9162 81.9694C53.786 82.1537 54.4726 82.822 54.6809 83.6872C54.888 84.5512 54.5813 85.4587 53.8901 86.0183C53.1989 86.5779 52.2479 86.6901 51.4456 86.3078C50.6422 85.9245 50.1319 85.1154 50.1319 84.2262ZM22.4566 93.4512C22.4577 92.1774 23.49 91.1463 24.7626 91.144H80.1131C81.3869 91.1463 82.418 92.1774 82.4191 93.4512V100.24V100.239C82.442 101.5 81.4841 102.563 80.2287 102.673C79.5982 102.705 78.9813 102.476 78.5236 102.04C78.0658 101.605 77.8072 101.001 77.8072 100.369C77.822 97.8972 76.5186 95.6049 74.3853 94.3566C72.2521 93.1069 69.6143 93.0908 67.4662 94.3131C65.3182 95.5353 63.9849 97.8114 63.9688 100.283C63.9814 100.906 63.7456 101.509 63.313 101.958C62.8804 102.406 62.2865 102.665 61.6628 102.675C60.3902 102.674 59.3579 101.643 59.3568 100.369C59.3568 97.8974 58.0384 95.6132 55.8971 94.3772C53.7571 93.1424 51.1191 93.1424 48.9781 94.3772C46.838 95.6132 45.5196 97.8975 45.5196 100.369C45.5196 101.643 44.4862 102.675 43.2125 102.675C41.9387 102.675 40.9065 101.643 40.9065 100.369C40.9065 97.8974 39.5881 95.6132 37.4468 94.3772C35.3068 93.1424 32.6688 93.1424 30.5278 94.3772C28.3877 95.6132 27.0693 97.8975 27.0693 100.369C27.0693 101.643 26.0359 102.675 24.7621 102.675C23.4884 102.675 22.4562 101.643 22.4562 100.369L22.4566 93.4512ZM82.4185 111.901L22.4566 111.9V106.891C24.5737 107.641 26.9243 107.316 28.7577 106.019C30.5922 104.722 31.6829 102.616 31.6817 100.369C31.6817 99.0954 32.714 98.0632 33.9877 98.0632C35.2614 98.0632 36.2948 99.0954 36.2948 100.369C36.2948 102.841 37.6132 105.125 39.7533 106.361C41.8945 107.597 44.5322 107.597 46.6724 106.361C48.8136 105.125 50.132 102.841 50.132 100.369C50.132 99.0954 51.1643 98.0632 52.438 98.0632C53.7118 98.0632 54.744 99.0954 54.744 100.369C54.7497 102.841 56.0727 105.123 58.2163 106.355C60.3599 107.586 62.9975 107.58 65.1353 106.34C67.2731 105.099 68.5868 102.813 68.5824 100.341C68.5858 99.7294 68.833 99.1435 69.2679 98.7143C69.7028 98.284 70.291 98.0448 70.9032 98.0483C72.177 98.0563 73.2024 99.0954 73.1943 100.369C73.1989 102.26 73.9725 104.068 75.3378 105.376C76.6195 106.607 78.3305 107.293 80.1076 107.288C80.2198 107.288 80.3319 107.286 80.4452 107.28C81.1181 107.249 81.7842 107.118 82.4193 106.891L82.4185 111.901ZM82.4185 121.126L22.4566 121.125V116.513H82.4185V121.126Z" fill="black"/>
</svg>
