<svg width="151" height="150" viewBox="0 0 151 150" fill="none" xmlns="http://www.w3.org/2000/svg">
<path d="M68.5801 104.865V77.3056C68.5801 76.6934 68.3375 76.1074 67.9049 75.6748C67.4723 75.2422 66.8852 74.9996 66.2741 74.9996C52.1887 74.9996 50.2135 99.1672 50.1368 100.195C50.0658 101.129 50.5671 102.012 51.4048 102.43L54.742 104.1V104.866L52.9544 122.742H52.9556C52.761 124.688 53.3984 126.624 54.7099 128.073C56.0214 129.523 57.8845 130.349 59.8392 130.349H63.4832C65.4378 130.349 67.302 129.523 68.6136 128.073C69.9251 126.624 70.5626 124.688 70.368 122.742L68.5801 104.865ZM54.9011 99.0219C55.3005 95.7878 56.0112 92.6006 57.0239 89.5028C58.7966 84.2876 61.1255 81.1142 63.967 80.0317V102.674H59.3551C59.3551 101.801 58.8619 101.002 58.0802 100.612L54.9011 99.0219ZM65.1928 124.978C64.7579 125.464 64.1353 125.741 63.483 125.737H59.8391C59.1879 125.737 58.5665 125.461 58.1282 124.978C57.691 124.494 57.4793 123.849 57.5446 123.2L59.1364 107.287H64.1866L65.7785 123.2C65.8472 123.849 65.6332 124.497 65.1937 124.978H65.1928Z" fill="black"/>
<path d="M142.382 3.50391H123.932C122.658 3.50391 121.624 4.53615 121.624 5.80989V8.11588L73.4779 8.11702C71.3928 8.11816 69.3409 8.64117 67.5099 9.63794L44.9308 21.9541H17.8449C13.9654 21.9541 10.9259 26.0064 10.9259 31.1791C10.9259 36.0072 13.574 39.8559 17.0806 40.3493L6.68251 75.5495C6.67336 75.5804 6.6642 75.6124 6.65619 75.6445H6.65734C6.4296 76.5588 6.31401 77.4972 6.31287 78.4403V144.185C6.31287 144.796 6.55662 145.384 6.98921 145.816C7.42181 146.249 8.00775 146.491 8.62 146.491H112.401C113.013 146.491 113.599 146.249 114.032 145.816C114.465 145.384 114.708 144.796 114.708 144.185V78.6336C114.708 77.5316 114.55 76.4363 114.239 75.379L104.631 42.7101C107.76 42.686 110.766 41.489 113.054 39.3535C115.341 37.2181 116.742 34.301 116.98 31.1803H121.626V35.7934C121.626 36.4045 121.87 36.9916 122.302 37.4242C122.735 37.8556 123.321 38.0994 123.933 38.0994H142.383C142.995 38.0994 143.582 37.8556 144.014 37.4242C144.446 36.9916 144.689 36.4045 144.689 35.7934V5.81095C144.689 5.19985 144.446 4.61277 144.014 4.18017C143.582 3.74872 142.995 3.50497 142.383 3.50497L142.382 3.50391ZM15.5381 31.1792C15.5381 28.3639 16.9045 26.5673 17.8441 26.5673H83.7708L74.5458 35.7923H17.8447C16.904 35.7923 15.5375 33.9944 15.5375 31.1792H15.5381ZM87.3769 75.6431C87.1492 76.5574 87.0336 77.497 87.0336 78.4389V141.878H10.9262V78.4389C10.9262 77.8884 10.9926 77.3402 11.1219 76.8047L21.8747 40.4033H70.3728C68.7546 43.1373 68.5085 46.4698 69.7067 49.4121C70.9049 52.3532 73.4102 54.5654 76.4781 55.3904C79.5452 56.2155 82.8227 55.5586 85.3346 53.6143L96.4296 44.9843L87.4015 75.5468C87.3923 75.5788 87.3832 75.6097 87.3751 75.6418L87.3769 75.6431ZM100.871 135.916L106.834 141.879H94.9071L100.871 135.916ZM109.814 76.6802L109.815 76.679C110.002 77.313 110.096 77.9699 110.096 78.6314V138.617L103.177 131.698V81.9165C103.177 80.6427 102.144 79.6105 100.871 79.6105C99.597 79.6105 98.5648 80.6427 98.5648 81.9165V131.701L91.6457 138.62V78.441C91.6457 77.8905 91.7121 77.3423 91.8414 76.8068L100.865 46.256L109.814 76.6802ZM121.627 26.5649H116.084C114.052 26.5672 112.405 28.214 112.402 30.2464C112.399 32.3281 111.572 34.3227 110.1 35.7946C108.63 37.2652 106.634 38.0938 104.553 38.096H98.8837C98.1639 38.0972 97.4658 38.3364 96.8971 38.7781L82.5038 49.9727C81.0058 51.14 79.0145 51.4582 77.2268 50.8162C75.4393 50.1753 74.105 48.6635 73.6895 46.8107C73.2753 44.9579 73.8383 43.0214 75.1819 41.6791L90.9702 25.8895C91.6306 25.2303 91.8286 24.2381 91.4715 23.3752C91.1144 22.5135 90.2721 21.9516 89.3395 21.9516H54.5641L69.7193 13.6843V13.6855C70.8718 13.0572 72.1638 12.7276 73.4775 12.7264H121.624L121.627 26.5649ZM140.077 33.484L126.24 33.4828V8.11467H140.077V33.484Z" fill="black"/>
<path d="M47.8262 77.3056C47.8262 76.0319 46.7939 74.9996 45.5202 74.9996C44.2465 74.9996 43.2131 76.0319 43.2131 77.3056V84.2247H38.6011V77.3056C38.6011 76.0319 37.5689 74.9996 36.2952 74.9996C35.0214 74.9996 33.988 76.0319 33.988 77.3056V84.2247H29.3761V77.3056C29.3761 76.0319 28.3439 74.9996 27.0701 74.9996C25.7964 74.9996 24.763 76.0319 24.763 77.3056V86.5306H24.7676C24.7664 86.8877 24.8477 87.2413 25.0068 87.5617L29.336 96.2216L27.4282 122.938C27.2921 124.853 27.957 126.74 29.2661 128.145C30.5754 129.551 32.4088 130.349 34.3301 130.349H38.26C40.1803 130.349 42.0147 129.551 43.3228 128.145C44.632 126.739 45.2969 124.853 45.1607 122.938L43.253 96.2216L47.5822 87.5617C47.7412 87.2413 47.8225 86.8877 47.8214 86.5306H47.8259L47.8262 77.3056ZM41.7884 88.8366L39.4824 93.4485L33.108 93.4496L30.802 88.8377L41.7884 88.8366ZM39.9482 125.004C39.5133 125.474 38.9011 125.741 38.2602 125.738H34.3303C33.6894 125.738 33.0783 125.472 32.6423 125.004C32.2063 124.535 31.9843 123.906 32.0289 123.267L33.8302 98.0631H38.7603L40.5604 123.267H40.5593C40.6085 123.906 40.3865 124.537 39.9482 125.004Z" fill="black"/>
</svg>
