<svg width="151" height="150" viewBox="0 0 151 150" fill="none" xmlns="http://www.w3.org/2000/svg">
<path d="M80.1113 70.3477V8.11816C80.1113 7.50592 79.8687 6.91998 79.4361 6.48738C79.0035 6.05478 78.4164 5.81104 77.8053 5.81104C73.1773 5.81104 69.2222 9.029 66.0488 15.3738C63.7554 19.9594 61.8087 26.2928 60.2627 34.1959C57.6649 47.4732 57.0743 60.5115 57.0503 61.0608V61.062C57.0033 62.156 57.7323 63.1334 58.7955 63.3989L66.2741 65.2688V70.3477L63.9715 137.045C63.9063 138.906 64.6056 140.712 65.9067 142.044C67.2366 143.423 69.0734 144.197 70.9892 144.188H75.3963C77.312 144.197 79.1489 143.423 80.4787 142.044C81.7799 140.71 82.4791 138.903 82.4139 137.042L80.1113 70.3477ZM61.7653 59.3865C62.0251 55.2976 62.8216 45.1397 64.7888 35.0815C67.4381 21.5408 71.1825 13.181 75.4982 10.9963L75.4994 68.0813H70.8863V63.4682C70.8863 62.4107 70.1665 61.4883 69.1399 61.2309L61.7653 59.3865ZM77.1635 138.834C76.7 139.312 76.0614 139.579 75.3965 139.573H70.9894C70.3245 139.579 69.6859 139.312 69.2224 138.834C68.7944 138.399 68.5621 137.808 68.5804 137.198L70.8086 72.6926H75.5773L77.8054 137.196C77.8237 137.807 77.5926 138.398 77.1634 138.834L77.1635 138.834Z" fill="black"/>
<path d="M125.703 13.5498C122.21 8.55911 117.485 5.81018 112.398 5.81018C107.311 5.81018 102.587 8.55791 99.0934 13.5487C95.7758 18.2889 93.9491 24.5511 93.9491 31.1795C93.9491 37.8091 95.7768 44.0701 99.0942 48.8092C100.922 51.4208 103.088 53.4109 105.465 54.7213L103.176 137.043V137.044C103.111 138.905 103.81 140.711 105.112 142.042C106.442 143.421 108.279 144.196 110.195 144.187H114.602C116.518 144.196 118.355 143.421 119.685 142.042C120.984 140.714 121.683 138.912 121.62 137.055L119.331 54.7222C121.708 53.4118 123.876 51.4204 125.702 48.8101C129.022 44.071 130.848 37.8111 130.848 31.1804C130.848 24.5496 129.022 18.2897 125.703 13.5507V13.5498ZM116.369 138.835C115.906 139.313 115.267 139.58 114.602 139.574H110.195C109.53 139.58 108.892 139.313 108.428 138.835C107.997 138.396 107.766 137.799 107.788 137.184L110.036 56.3389C111.601 56.6181 113.201 56.6181 114.765 56.3389L117.012 137.195C117.031 137.806 116.799 138.398 116.37 138.834L116.369 138.835ZM121.924 46.166C119.32 49.8876 115.937 51.9372 112.398 51.9372C108.861 51.9372 105.478 49.8876 102.872 46.166C100.092 42.1937 98.561 36.8722 98.561 31.1813C98.561 25.4901 100.092 20.1686 102.872 16.1965C105.478 12.4749 108.861 10.4253 112.398 10.4253C115.936 10.4253 119.318 12.475 121.924 16.1965C124.705 20.1689 126.237 25.4904 126.237 31.1813C126.237 36.8725 124.705 42.194 121.924 46.166Z" fill="black"/>
<path d="M40.9063 5.81257C39.6325 5.81257 38.6003 6.84596 38.6003 8.1197V31.1819H33.9872V8.1197C33.9872 6.84596 32.9549 5.81257 31.6812 5.81257C30.4075 5.81257 29.3752 6.84596 29.3752 8.1197V31.1819H24.7621V8.1197C24.7621 6.84596 23.7299 5.81257 22.4561 5.81257C21.1824 5.81257 20.1501 6.84596 20.1501 8.1197V40.5338C20.1524 42.3248 20.569 44.0895 21.3678 45.6915L24.7484 52.4514L22.4595 137.043C22.3954 138.904 23.0947 140.71 24.3959 142.042C25.7257 143.421 27.5626 144.196 29.4783 144.186H33.8854H33.8843C35.8012 144.196 37.6369 143.421 38.9667 142.042C40.2656 140.714 40.9648 138.913 40.9031 137.057L38.6154 52.4503L41.9959 45.6903H41.9948C42.7936 44.0881 43.2102 42.3235 43.2124 40.5326V8.11853C43.2124 7.50628 42.9698 6.92035 42.5372 6.48775C42.1046 6.05515 41.5187 5.8114 40.9065 5.8114L40.9063 5.81257ZM35.6521 138.835C35.1887 139.313 34.5501 139.58 33.884 139.574H29.4781C28.812 139.58 28.1734 139.313 27.7099 138.835C27.2796 138.396 27.0485 137.797 27.0702 137.181L29.3132 54.2419H34.0488L36.2941 137.196C36.3124 137.807 36.0813 138.399 35.6521 138.835ZM38.6 40.5323C38.5989 41.6069 38.3482 42.6655 37.8687 43.6266L34.8681 49.629H28.4937L25.4931 43.6266C25.0136 42.6653 24.763 41.6068 24.7619 40.5323V35.7921H38.5988L38.6 40.5323Z" fill="black"/>
</svg>
