<svg width="151" height="150" viewBox="0 0 151 150" fill="none" xmlns="http://www.w3.org/2000/svg">
<path d="M128.542 139.573H29.3721C22.7803 139.573 16.6898 136.056 13.3939 130.348C10.098 124.64 10.098 117.608 13.3939 111.898C16.6898 106.19 22.7803 102.673 29.3721 102.673H89.334C97.5738 102.673 105.187 98.2772 109.307 91.142C113.426 84.0067 113.426 75.2153 109.307 68.0798C105.188 60.9445 97.5738 56.5488 89.334 56.5488H66.2718V21.9551C66.2718 21.7079 66.2318 21.4607 66.1528 21.2261L61.5409 7.38917V7.38803C61.2273 6.44619 60.345 5.81104 59.3528 5.81104H13.2278C12.2356 5.81104 11.3544 6.44619 11.0396 7.38803L6.42773 21.2249V21.2261C6.34877 21.4607 6.30986 21.7079 6.30872 21.9551V58.8545C6.30872 59.4656 6.55247 60.0527 6.98506 60.4853C7.41766 60.9179 8.0036 61.1605 8.61584 61.1605H89.3346C95.9264 61.1605 102.017 64.6773 105.313 70.3855C108.609 76.0937 108.609 83.1273 105.313 88.8358C102.017 94.5443 95.9264 98.0608 89.3346 98.0608H29.3727C21.1329 98.0608 13.5193 102.456 9.39924 109.592C5.28039 116.727 5.28039 125.518 9.39924 132.655C13.519 139.79 21.1329 144.186 29.3727 144.186H128.543C129.816 144.186 130.849 143.154 130.849 141.88C130.849 140.606 129.816 139.573 128.543 139.573L128.542 139.573ZM43.209 42.7119H29.3721V31.181C32.5822 31.181 34.8228 29.9393 36.2912 28.241C37.7594 29.9416 40.0001 31.181 43.2102 31.181L43.209 42.7119ZM47.813 22.0966C47.7501 22.9309 47.5235 23.7445 47.1459 24.4907C46.3917 25.9086 45.1408 26.569 43.2089 26.569C41.2771 26.569 40.0264 25.9086 39.2732 24.4919V24.4907C38.8738 23.7022 38.6438 22.8393 38.5969 21.9559V10.4249H45.8683L47.813 22.0966ZM33.984 21.9352V21.9409C33.9394 22.829 33.7094 23.6976 33.3077 24.4907C32.5547 25.9086 31.3038 26.5689 29.3719 26.5689C27.44 26.5689 26.1894 25.9086 25.4362 24.4919V24.4907C25.0574 23.7457 24.8308 22.932 24.7667 22.0989L26.7133 10.4247H33.9837L33.984 21.9352ZM22.4531 28.2408C23.1031 28.9949 23.8847 29.6244 24.7591 30.097V47.325H10.9222V30.0958C12.3435 30.8397 13.9309 31.2128 15.5341 31.1807C18.7453 31.1807 20.9847 29.939 22.4531 28.2408ZM29.3721 49.631V47.325H43.209V56.55H29.3721V49.631ZM47.8224 30.0959C48.6979 29.6232 49.4795 28.9938 50.1284 28.2396C51.5967 29.9402 53.8374 31.1796 57.0474 31.1796C58.6519 31.2116 60.2382 30.8385 61.6594 30.0947V47.3248H47.8224L47.8224 30.0959ZM61.6365 22.2601V22.2613C61.5587 23.0383 61.3366 23.7948 60.983 24.4906C60.23 25.9085 58.978 26.5688 57.0473 26.5688C55.1155 26.5688 53.8647 25.9085 53.1115 24.4918L53.1104 24.4906C52.7121 23.7021 52.481 22.8392 52.434 21.9558C52.434 21.8287 52.4226 21.7017 52.4008 21.577H52.4031L50.5446 10.4248H57.6916L61.6365 22.2601ZM14.8904 10.4248H22.0374L20.1983 21.4556C20.164 21.6136 20.1468 21.7738 20.1468 21.9351V21.9409C20.1022 22.8289 19.871 23.6975 19.4705 24.4906C18.7163 25.9085 17.4654 26.5689 15.5335 26.5689C13.6016 26.5689 12.351 25.9085 11.5978 24.4918V24.4906C11.2442 23.7948 11.0222 23.0395 10.9443 22.2624L14.8904 10.4248ZM10.9215 51.9384H24.7584V56.5504L10.9215 56.5515V51.9384ZM47.8209 51.9384H61.6579V56.5504L47.8209 56.5515V51.9384Z" fill="black"/>
<path d="M128.542 100.368C126.708 100.368 124.947 101.097 123.65 102.395C122.352 103.693 121.623 105.453 121.623 107.287C121.623 109.121 122.352 110.882 123.65 112.179C124.948 113.477 126.708 114.206 128.542 114.206C130.378 114.206 132.137 113.477 133.434 112.179C134.732 110.882 135.461 109.121 135.461 107.287C135.459 105.453 134.729 103.694 133.432 102.397C132.135 101.101 130.376 100.37 128.542 100.368ZM128.542 109.593C127.609 109.593 126.768 109.031 126.411 108.17C126.054 107.308 126.252 106.316 126.911 105.656C127.57 104.997 128.563 104.799 129.424 105.156C130.286 105.513 130.848 106.354 130.848 107.287C130.847 108.56 129.816 109.592 128.542 109.593Z" fill="black"/>
<path d="M128.542 91.1426C124.262 91.1472 120.158 92.85 117.132 95.877C114.105 98.9027 112.404 103.007 112.398 107.287C112.398 124.469 126.655 134.17 127.263 134.574C128.037 135.091 129.047 135.091 129.822 134.574C130.428 134.17 144.686 124.468 144.686 107.287C144.682 103.007 142.979 98.9027 139.952 95.877C136.926 92.85 132.822 91.147 128.542 91.1426ZM128.537 129.759C125.291 127.113 117.011 119.195 117.011 107.286C117.011 103.166 119.208 99.3598 122.776 97.2999C126.345 95.24 130.741 95.24 134.307 97.2999C137.876 99.3598 140.073 103.166 140.073 107.286C140.073 119.147 131.779 127.104 128.537 129.76V129.759Z" fill="black"/>
</svg>
