<svg width="151" height="150" viewBox="0 0 151 150" fill="none" xmlns="http://www.w3.org/2000/svg">
<path d="M126.526 61.0985C130.561 59.0226 133.444 55.2392 134.376 50.8001C135.309 46.3599 134.189 41.7362 131.33 38.2139C128.47 34.6915 124.175 32.6463 119.637 32.6463C115.101 32.6463 110.806 34.6914 107.946 38.2139C105.086 41.7362 103.967 46.3599 104.9 50.8001C105.831 55.2392 108.715 59.0226 112.749 61.0985C109.814 62.521 107.403 64.8351 105.862 67.7108L99.4042 76.2813L93.8732 76.2825L93.6913 75.4757V75.4745C92.7906 71.3903 90.5179 67.7372 87.2518 65.1245C83.9858 62.5119 79.9229 61.0962 75.7402 61.1156H75.4656C71.245 61.1293 67.1573 62.5884 63.8807 65.2502C60.6041 67.911 58.3383 71.6144 57.4594 75.7432L57.3438 76.2822H51.5966L45.1387 67.7117V67.7105C43.6007 64.8347 41.1904 62.5194 38.2551 61.0982C42.7493 58.7751 45.7809 54.3541 46.3267 49.3244H50.3161C51.2064 49.3244 51.9274 48.6034 51.9274 47.7131C51.9274 46.8227 51.2064 46.1018 50.3161 46.1018H46.3346C45.7727 40.8272 42.4792 36.2381 37.6622 34.0191C32.8455 31.8001 27.2161 32.2774 22.8421 35.2769C18.468 38.2774 15.9951 43.3564 16.3302 48.6494C16.6654 53.9425 19.76 58.6687 24.4774 61.0927C21.8647 62.3607 19.6616 64.3394 18.1203 66.7997C16.5776 69.2613 15.7594 72.1063 15.7571 75.0107V118.083C15.7571 118.972 16.478 119.694 17.3684 119.694C18.2588 119.694 18.9797 118.972 18.9797 118.083V75.0166C18.9832 71.7699 20.2741 68.6571 22.5686 66.3614C24.8643 64.0658 27.9771 62.7737 31.2238 62.7702H31.5122H31.511C33.7449 62.7679 35.9354 63.3779 37.8453 64.5337C39.7565 65.6896 41.3129 67.3467 42.3485 69.3252C42.3886 69.4019 42.4366 69.4752 42.4893 69.545L49.5056 78.8628V78.8617C49.8112 79.2657 50.2884 79.5037 50.7942 79.5014H59.5329C61.1087 79.5014 62.5645 80.3426 63.3517 81.7067C64.1402 83.072 64.1402 84.753 63.3517 86.1185C62.5644 87.4826 61.1087 88.3238 59.5329 88.3238H49.731C48.5191 88.3226 47.3243 88.0377 46.2429 87.4906C46.1525 87.4311 46.0564 87.383 45.9545 87.3464C45.1248 86.883 44.3867 86.2707 43.7779 85.5417L35.4294 75.4858C34.8584 74.8026 33.8421 74.7122 33.1589 75.2833C32.4757 75.8543 32.3853 76.8706 32.9564 77.5526L41.3367 87.6017L41.3356 87.6029C42.0325 88.4395 42.8508 89.1673 43.7629 89.7624V118.083C43.7629 118.972 44.485 119.694 45.3754 119.694C46.2646 119.694 46.9867 118.972 46.9867 118.083V91.1894C47.8873 91.4263 48.8166 91.5453 49.7481 91.5465H59.55C61.4165 91.5259 63.2109 90.8256 64.597 89.5747C65.983 88.3238 66.8641 86.6096 67.0758 84.7545C67.2863 82.8994 66.8125 81.0317 65.7425 79.5015H85.3017C84.3862 80.8131 83.8986 82.374 83.9044 83.9728C83.9067 85.9813 84.7043 87.9062 86.1245 89.3263C87.5447 90.7453 89.4696 91.5441 91.4771 91.5464H101.279C102.212 91.5464 103.141 91.4262 104.044 91.1893V118.083C104.044 118.972 104.765 119.694 105.655 119.694C106.546 119.694 107.266 118.972 107.266 118.083V89.7623C108.179 89.1683 108.997 88.4416 109.694 87.6051L118.074 77.5527C118.645 76.8707 118.554 75.8544 117.87 75.2834C117.187 74.7123 116.171 74.8027 115.601 75.4859L107.211 85.5418C106.604 86.2708 105.865 86.8819 105.035 87.3431C104.94 87.3831 104.848 87.4323 104.761 87.4907C103.679 88.0377 102.483 88.3227 101.27 88.3238H91.4677H91.4688C89.893 88.3238 88.436 87.4827 87.6488 86.1186C86.8603 84.7533 86.8603 83.0723 87.6488 81.7068C88.4362 80.3426 89.893 79.5015 91.4688 79.5015H100.206C100.712 79.5038 101.188 79.2657 101.491 78.8618L108.511 69.5439V69.545C108.564 69.4752 108.61 69.402 108.65 69.3253C109.687 67.3455 111.246 65.6884 113.159 64.5326C115.071 63.3768 117.264 62.7668 119.498 62.7703H119.786C123.033 62.7737 126.146 64.0657 128.44 66.3615C130.736 68.6571 132.027 71.77 132.03 75.0166V118.083C132.03 118.972 132.751 119.694 133.642 119.694C134.531 119.694 135.253 118.972 135.253 118.083V75.0166C135.25 72.111 134.43 69.266 132.887 66.8044C131.344 64.344 129.139 62.3665 126.527 61.0983L126.526 61.0985ZM31.3643 35.8733C34.223 35.8779 36.9846 36.9148 39.1382 38.7939C41.2931 40.673 42.6963 43.2675 43.0886 46.0988H19.6373C20.0298 43.2664 21.4329 40.6721 23.5877 38.7927C25.7426 36.9136 28.5052 35.8768 31.364 35.8733H31.3643ZM19.6376 49.3212H43.0889C42.5636 53.131 40.221 56.4462 36.8073 58.2154C33.3937 59.9836 29.3331 59.9836 25.9194 58.2154C22.5046 56.4462 20.1632 53.131 19.6379 49.3212H19.6376ZM75.4657 64.3323H75.7404C79.1907 64.3163 82.5417 65.4836 85.2367 67.6385C87.9306 69.7946 89.8052 72.8079 90.5467 76.1779L90.5696 76.2764H60.6429C61.3913 72.8981 63.2658 69.8744 65.9597 67.7035C68.6547 65.5337 72.0068 64.3446 75.4662 64.332L75.4657 64.3323ZM107.789 47.7099C107.788 44.5707 109.034 41.5587 111.254 39.3386C113.473 37.1173 116.484 35.8687 119.623 35.8675C122.763 35.8663 125.775 37.1126 127.997 39.3316C130.218 41.5506 131.467 44.5605 131.468 47.7005C131.47 50.8397 130.225 53.8517 128.006 56.0741C125.787 58.2954 122.777 59.5452 119.637 59.5473C116.497 59.5461 113.486 58.2987 111.265 56.0797C109.042 53.8607 107.792 50.8496 107.789 47.7096L107.789 47.7099Z" fill="black"/>
<path d="M60.1455 49.0195C60.7131 49.2873 61.1125 49.816 61.2144 50.4351C61.3162 51.0542 61.1057 51.6837 60.6536 52.1185L58.961 53.7413C58.3202 54.3582 58.3007 55.3778 58.9175 56.0187C59.5333 56.6607 60.5529 56.6824 61.1949 56.0679L62.8875 54.4417C64.104 53.2732 64.6682 51.5807 64.3947 49.9156C64.1074 48.2196 62.9985 46.7765 61.4342 46.0613C60.8929 45.8061 60.5038 45.3094 60.3825 44.7235C60.2623 44.1364 60.4237 43.5276 60.8208 43.0778L63.3923 40.1756C63.6921 39.8575 63.8512 39.4318 63.8317 38.9946C63.8123 38.5574 63.6155 38.1478 63.287 37.8582C62.9597 37.5698 62.5283 37.4256 62.0922 37.4611C61.6562 37.4966 61.2534 37.7071 60.9764 38.0447L58.4164 40.9447C57.3406 42.1681 56.9081 43.8286 57.2525 45.4204C57.5959 47.0122 58.675 48.3466 60.1605 49.016L60.1455 49.0195Z" fill="black"/>
<path d="M89.5625 49.0195C90.1301 49.2873 90.5295 49.816 90.6302 50.4351C90.7321 51.0542 90.5227 51.6837 90.0695 52.1185L88.3769 53.7413C87.7372 54.3582 87.7177 55.3778 88.3334 56.0187C88.9491 56.6607 89.9688 56.6824 90.6108 56.0679L92.3033 54.4417C93.5336 53.2618 94.0978 51.5486 93.8082 49.8687C93.5198 48.1899 92.4155 46.7627 90.8624 46.0613C90.32 45.8061 89.9309 45.3094 89.8096 44.7235C89.6894 44.1364 89.8519 43.5276 90.2479 43.0778L92.7965 40.1756C93.0974 39.8575 93.2554 39.4318 93.2359 38.9946C93.2165 38.5574 93.0196 38.1478 92.6923 37.8582C92.3639 37.5698 91.9324 37.4256 91.4964 37.4611C91.0604 37.4966 90.6576 37.7071 90.3806 38.0447L87.8206 40.9447C86.7437 42.1658 86.31 43.8251 86.651 45.4171C86.992 47.009 88.0677 48.3445 89.5498 49.0163L89.5625 49.0195Z" fill="black"/>
<path d="M74.8555 41.8271C75.422 42.0937 75.8214 42.6236 75.9221 43.2427C76.0228 43.8607 75.8133 44.4901 75.3601 44.9227L73.6676 46.5489C73.3597 46.8453 73.1812 47.2516 73.1732 47.6796C73.1652 48.1065 73.3265 48.5196 73.6229 48.8275C74.2398 49.4695 75.2606 49.4901 75.9015 48.8721L77.5906 47.2493C78.8208 46.0694 79.385 44.3563 79.0966 42.6764C78.8071 40.9975 77.7027 39.5703 76.1497 38.8689C75.6083 38.6137 75.2181 38.1171 75.098 37.5311C74.9766 36.9441 75.1392 36.3352 75.5351 35.8855L78.0929 32.9821C78.6823 32.3149 78.6182 31.2952 77.9498 30.707C77.2815 30.1176 76.263 30.1817 75.6736 30.8489L73.1136 33.7523C72.0424 34.9585 71.6053 36.6019 71.9383 38.1799C72.2701 39.7935 73.3551 41.1486 74.8555 41.8271Z" fill="black"/>
</svg>
