<svg width="151" height="150" viewBox="0 0 151 150" fill="none" xmlns="http://www.w3.org/2000/svg">
<path d="M133.156 15.0352H63.9688C60.9119 15.0386 57.9811 16.2551 55.8195 18.4169C53.6577 20.5787 52.4413 23.5096 52.4378 26.5673V60.08L39.4306 70.9198C38.6844 71.5412 38.4075 72.5632 38.7382 73.4764C39.0689 74.3897 39.9352 74.9985 40.9068 74.9985H52.4378V91.1425V91.1414C52.4412 94.1994 53.6577 97.13 55.8195 99.2918C57.9813 101.454 60.9122 102.669 63.9688 102.672H133.156C136.213 102.669 139.144 101.454 141.305 99.2918C143.467 97.13 144.684 94.1991 144.687 91.1414V26.5682C144.684 23.5102 143.467 20.5796 141.305 18.4178C139.144 16.256 136.213 15.0395 133.156 15.036V15.0352ZM140.075 91.1426H140.074C140.072 92.9771 139.343 94.7361 138.045 96.0325C136.748 97.3303 134.989 98.0593 133.156 98.0616H63.9685C62.1352 98.0593 60.3762 97.3303 59.0795 96.0325C57.7817 94.7359 57.0527 92.9769 57.0504 91.1426V72.6923C57.0504 72.0812 56.8067 71.4941 56.3741 71.0615C55.9426 70.6289 55.3556 70.3863 54.7433 70.3863H47.2773L56.2207 62.9329C56.746 62.4946 57.0504 61.8457 57.0504 61.1613V26.5676C57.0527 24.7331 57.7817 22.974 59.0795 21.6776C60.3761 20.3799 62.1351 19.6509 63.9685 19.6486H133.156C134.989 19.6509 136.748 20.3799 138.045 21.6776C139.343 22.9743 140.072 24.7333 140.074 26.5676L140.075 91.1426Z" fill="black"/>
<path d="M24.7607 116.382V121.125C24.7642 124.183 25.9807 127.114 28.1425 129.276C30.3043 131.437 33.2352 132.654 36.2929 132.657H38.5989C40.4333 132.659 42.1912 133.389 43.4888 134.685C44.7854 135.983 45.5156 137.741 45.5178 139.575V141.882C45.5178 143.156 46.5501 144.188 47.8238 144.188C49.0976 144.188 50.1298 143.156 50.1298 141.882V139.575C50.1264 136.518 48.9099 133.588 46.7481 131.426C44.5863 129.264 41.6554 128.048 38.5989 128.044H36.2929C34.4584 128.042 32.6993 127.313 31.4029 126.015C30.1052 124.719 29.3762 122.96 29.3739 121.125V116.513H36.2929C38.1263 116.511 39.8853 115.782 41.1829 114.484C42.4795 113.188 43.2085 111.429 43.2108 109.594V95.7575C43.2085 93.923 42.4795 92.1639 41.1829 90.8675C39.8851 89.5698 38.126 88.8408 36.2929 88.8385H24.7608V51.9391H36.2929C38.1263 51.9368 39.8853 51.2078 41.1829 49.9112C42.4795 48.6134 43.2085 46.8543 43.2108 45.0212V31.1831C43.2085 29.3487 42.4795 27.5908 41.1829 26.2932C39.8851 24.9966 38.126 24.2664 36.2929 24.2642H27.0679C21.5645 24.271 16.2887 26.4591 12.3978 30.3512C8.50572 34.2421 6.31754 39.5179 6.3108 45.0213V95.7576C6.31881 100.861 8.2025 105.783 11.6047 109.587C15.007 113.391 19.69 115.808 24.7607 116.382ZM38.5988 95.7574V109.594C38.5977 110.868 37.5654 111.899 36.2928 111.9H33.9869L33.9857 93.4512H36.2928C37.5654 93.4523 38.5977 94.4836 38.5988 95.7574ZM38.5988 31.1812V45.0193C38.5977 46.2919 37.5654 47.3241 36.2928 47.3253H33.9869L33.9857 28.875H36.2928C37.5654 28.8761 38.5977 29.9086 38.5988 31.1812ZM10.9235 45.0193C10.9281 40.7381 12.631 36.6354 15.6567 33.6085C18.6837 30.5827 22.7876 28.8797 27.0676 28.8753H29.3736V47.3255H22.4545C21.1808 47.3255 20.1485 48.3578 20.1485 49.6315V91.1452C20.1485 91.7575 20.3912 92.3434 20.8237 92.776C21.2563 93.2086 21.8434 93.4523 22.4545 93.4523H29.3736V111.903L27.0676 111.901C22.7876 111.897 18.6837 110.195 15.6567 107.168C12.631 104.141 10.9279 100.039 10.9235 95.7586V45.0193Z" fill="black"/>
<path d="M119.319 61.0459V33.4863C119.319 32.8752 119.077 32.2881 118.644 31.8555C118.212 31.4229 117.624 31.1803 117.013 31.1803C102.928 31.1803 100.953 55.3479 100.876 56.3756V56.3768C100.806 57.3095 101.308 58.1929 102.144 58.6118L105.482 60.2803V61.0471L103.695 78.9229V78.924C103.5 80.8684 104.138 82.8047 105.449 84.2546C106.761 85.7034 108.624 86.5308 110.579 86.5308H114.222C116.178 86.5308 118.041 85.7034 119.353 84.2546C120.664 82.8046 121.302 80.8682 121.107 78.924L119.319 61.0459ZM107.763 45.6832C109.536 40.468 111.865 37.2958 114.706 36.2121L114.707 58.8553H110.094C110.094 57.9821 109.601 57.1834 108.819 56.7931L105.64 55.2035V55.2024C106.04 51.9683 106.752 48.781 107.763 45.6832ZM115.933 81.1587C115.497 81.6451 114.875 81.9209 114.222 81.9175H110.578C109.927 81.9175 109.306 81.6417 108.869 81.1587C108.431 80.6758 108.219 80.0292 108.284 79.3815L109.876 63.4674H114.926L116.518 79.3803V79.3815C116.586 80.0303 116.374 80.677 115.933 81.1587Z" fill="black"/>
<path d="M98.5625 33.4863C98.5625 32.2125 97.5303 31.1803 96.2565 31.1803C94.9828 31.1803 93.9505 32.2125 93.9505 33.4863V40.4053H89.3374V33.4863C89.3374 32.2125 88.3052 31.1803 87.0315 31.1803C85.7577 31.1803 84.7255 32.2125 84.7255 33.4863V40.4053H80.1124V33.4863C80.1124 32.2125 79.0801 31.1803 77.8064 31.1803C76.5327 31.1803 75.5004 32.2125 75.5004 33.4863V42.7113H75.505H75.5038C75.5027 43.0695 75.5851 43.4231 75.743 43.7435L80.0722 52.4034L78.1645 79.1195V79.1184C78.0283 81.0341 78.6944 82.9211 80.0024 84.3265C81.3116 85.7318 83.146 86.5306 85.0664 86.5306H88.9963C90.9166 86.5306 92.7509 85.7318 94.0591 84.3265C95.3683 82.9211 96.0343 81.0341 95.897 79.1184L93.9892 52.4022L98.3184 43.7424V43.7435C98.4775 43.4231 98.5599 43.0695 98.5576 42.7113H98.5622L98.5625 33.4863ZM92.5247 45.0172L90.2187 49.6292L83.8443 49.6303L81.5383 45.0184L92.5247 45.0172ZM90.6845 81.1842C90.2496 81.6557 89.6374 81.9224 88.9965 81.9189H85.0666C84.4258 81.9189 83.8147 81.6534 83.3786 81.1842C82.9426 80.7162 82.7206 80.0879 82.7664 79.4493L84.5665 54.2437H89.4966L91.2968 79.4481L91.2956 79.4493C91.3448 80.0879 91.1228 80.7173 90.6845 81.1842Z" fill="black"/>
</svg>
