<svg width="151" height="150" viewBox="0 0 151 150" fill="none" xmlns="http://www.w3.org/2000/svg">
<path d="M142.382 24.2607H100.868C99.5944 24.2607 98.5622 25.2941 98.5622 26.5679V61.8062L86.6556 65.775H77.8059C74.1781 65.783 70.7633 67.4893 68.5809 70.3869L64.4301 75.9226H64.429C63.7412 76.8404 63.8316 78.1255 64.6441 78.9369L74.7161 89.0089L67.4719 98.0622H56.395C55.2232 94.1402 54.5685 90.0823 54.4484 85.991C54.1257 75.5174 57.1652 66.0885 63.4824 57.9656H63.4801C63.7971 57.5616 63.9688 57.0627 63.9676 56.55V45.019C63.9676 44.4068 63.725 43.8197 63.2924 43.3883C62.8598 42.9557 62.2739 42.7119 61.6616 42.7119H54.7426V38.1H61.6616C62.2739 38.1 62.8598 37.8562 63.2924 37.4248C63.725 36.9922 63.9676 36.4051 63.9676 35.794V26.569C63.9676 25.9568 63.725 25.3708 63.2924 24.9382C62.8598 24.5056 62.2739 24.2619 61.6616 24.2619H57.0497C55.2152 24.2642 53.4562 24.9943 52.1598 26.2909C50.862 27.5887 50.133 29.3466 50.1307 31.1809V42.9442C47.5284 43.4797 45.1892 44.8954 43.5091 46.9531C41.8279 49.0119 40.909 51.5867 40.9055 54.2431V56.5502C40.9044 57.1613 41.1481 57.7484 41.5819 58.181C34.87 61.5249 26.4184 67.4288 21.0307 77.3625C13.282 77.9542 6.31137 83.2518 6.31137 88.8375C6.31137 89.4498 6.55513 90.0357 6.98772 90.4683C7.42031 90.9009 8.00625 91.1435 8.6185 91.1435H11.5986C7.44428 95.7921 5.59946 102.061 6.57358 108.218C7.54747 114.376 11.2371 119.77 16.6227 122.909C22.0083 126.048 28.5199 126.6 34.3576 124.413C40.1953 122.225 44.7407 117.529 46.7378 111.624C47.072 111.805 47.4451 111.9 47.825 111.9H99.742C102.148 118.714 107.923 123.786 114.99 125.292C122.057 126.797 129.398 124.518 134.372 119.277C139.346 114.035 141.235 106.584 139.36 99.6066C137.486 92.6281 132.117 87.1267 125.188 85.0818L129.221 81.9977L136.625 86.2276H136.624C137.156 86.5388 137.79 86.6247 138.385 86.4656C138.98 86.3077 139.487 85.9163 139.794 85.3818C140.099 84.8463 140.177 84.2123 140.012 83.6183C139.847 83.0244 139.451 82.522 138.913 82.2222L131.419 77.9422L134.896 65.7761H142.381C142.993 65.7761 143.58 65.5323 144.012 65.0997C144.444 64.6671 144.687 64.0812 144.687 63.4689V26.5695C144.687 25.9573 144.444 25.3713 144.012 24.9387C143.58 24.5061 142.993 24.2624 142.381 24.2624L142.382 24.2607ZM103.174 47.3241H107.786V61.161H103.174V47.3241ZM112.399 61.161V47.3241H130.849V61.161H112.399ZM103.174 42.7107V35.7858C105.167 37.2896 107.597 38.101 110.093 38.0987H133.156C135.652 38.101 138.082 37.2896 140.074 35.7858V42.7107H103.174ZM133.156 33.4857H110.094C108.664 33.4846 107.27 33.0406 106.101 32.2143C104.934 31.3881 104.05 30.2219 103.572 28.8739H139.68C139.202 30.222 138.319 31.3881 137.15 32.2143C135.983 33.0406 134.588 33.4846 133.158 33.4857H133.156ZM77.8057 70.3852H87.0307C87.2779 70.3852 87.5251 70.3451 87.7597 70.2673L101.243 65.7731H111.956L88.8934 74.9981H70.8861L72.2697 73.1533V73.1522C73.5801 71.4138 75.6286 70.3896 77.8054 70.385L77.8057 70.3852ZM59.3554 54.2411H54.7423V47.3232H59.3542L59.3554 54.2411ZM54.7435 31.1789H54.7423C54.7446 29.9063 55.7757 28.8741 57.0494 28.8729H59.3554V33.4848H54.7423L54.7435 31.1789ZM50.1315 47.719L50.1304 54.2411H45.5185C45.5196 52.8118 45.9636 51.4167 46.7899 50.2494C47.6162 49.081 48.7823 48.1975 50.1303 47.7191L50.1315 47.719ZM21.4218 81.9612L25.2887 86.531H11.8522C13.5414 84.3257 17.3237 82.2668 21.4218 81.9612ZM27.0682 121.125C22.3291 121.125 17.8306 119.042 14.7623 115.431C11.6952 111.819 10.3701 107.042 11.1368 102.366C11.9036 97.6898 14.6867 93.5871 18.7473 91.1438H29.1922L33.0661 95.7226L30.0494 98.7393C28.0684 97.7928 25.7568 97.842 23.8191 98.872C21.8805 99.9008 20.5449 101.789 20.22 103.96C19.8961 106.13 20.6194 108.326 22.1713 109.878C23.7231 111.43 25.9192 112.154 28.0901 111.829C30.2599 111.504 32.1483 110.168 33.1781 108.231C34.2069 106.292 34.2561 103.981 33.3108 102.001L36.0551 99.2564L43.0155 107.482C42.4353 111.291 40.5058 114.764 37.5783 117.268C34.6509 119.773 30.92 121.142 27.068 121.125L27.0682 121.125ZM29.3741 104.982C29.3741 105.915 28.8122 106.756 27.9505 107.113C27.0888 107.469 26.0966 107.272 25.4374 106.613C24.7771 105.953 24.5802 104.962 24.9373 104.1C25.2944 103.237 26.1355 102.675 27.0682 102.675C28.3408 102.678 29.373 103.709 29.3741 104.982ZM88.5568 107.287L48.8947 107.288L25.2201 79.311C33.6143 64.1511 50.5792 59.4018 52.7135 58.8571H57.2179C50.7726 68.9669 49.5972 79.1921 49.8433 86.323C50.142 94.986 52.5006 100.975 52.6013 101.225V101.227C52.9515 102.102 53.7995 102.675 54.7425 102.675H68.5806C69.281 102.676 69.9436 102.358 70.3819 101.811L79.6069 90.2804C80.3405 89.3626 80.2672 88.0396 79.4364 87.2089L71.842 79.6134H89.3367C89.6296 79.6134 89.9203 79.5573 90.1927 79.4486L121.625 66.8761V68.0823C121.628 69.7337 122.219 71.329 123.294 72.5832C124.368 73.8363 125.855 74.6661 127.487 74.9201L126.536 78.2459L88.5568 107.287ZM102.183 102.675H119.318C120.592 102.675 121.624 103.709 121.624 104.982C121.624 106.256 120.592 107.288 119.318 107.288H96.1499L102.183 102.675ZM108.214 98.0634L111.88 95.2596L113.281 98.0634H108.214ZM135.463 104.982C135.462 109.907 133.213 114.561 129.357 117.623C125.501 120.686 120.457 121.821 115.661 120.706C110.864 119.592 106.838 116.35 104.727 111.9H119.319C121.791 111.9 124.075 110.582 125.311 108.442C126.547 106.3 126.547 103.663 125.311 101.522C124.075 99.3813 121.791 98.0628 119.319 98.0628H118.438L115.61 92.4071L120.239 88.8662C124.351 89.1123 128.213 90.9159 131.041 93.9097C133.87 96.9035 135.45 100.863 135.463 104.982L135.463 104.982ZM128.78 70.3887H128.544C127.271 70.3876 126.239 69.3553 126.238 68.0827V65.7767H130.099L128.78 70.3887ZM135.463 61.1637V47.3268H140.075V61.1637H135.463Z" fill="black"/>
</svg>
