<svg width="151" height="150" viewBox="0 0 151 150" fill="none" xmlns="http://www.w3.org/2000/svg">
<path d="M47.8262 144.187H103.177C106.235 144.184 109.165 142.968 111.327 140.806C113.489 138.644 114.705 135.713 114.709 132.657V17.344C114.705 14.286 113.489 11.3554 111.327 9.19363C109.165 7.03181 106.234 5.81541 103.177 5.81189H47.8262C44.7682 5.81532 41.8376 7.03184 39.6758 9.19363C37.514 11.3554 36.2987 14.2863 36.2952 17.344V132.657C36.2987 135.713 37.514 138.644 39.6758 140.806C41.8376 142.968 44.7685 144.184 47.8262 144.187ZM40.9071 17.3437C40.9094 15.5092 41.6384 13.7502 42.9362 12.4538C44.2328 11.156 45.9918 10.427 47.8261 10.4247H103.177C105.011 10.427 106.77 11.156 108.067 12.4538C109.364 13.7504 110.093 15.5094 110.096 17.3437V24.2616H40.9082L40.9071 17.3437ZM40.9071 28.8747H110.095V116.513H40.9071V28.8747ZM40.9071 121.125L110.095 121.124V132.656C110.092 134.489 109.363 136.248 108.066 137.545C106.769 138.842 105.01 139.571 103.176 139.574H47.8251C45.9906 139.571 44.2315 138.842 42.9351 137.545C41.6374 136.248 40.9084 134.489 40.9061 132.656L40.9071 121.125Z" fill="black"/>
<path d="M63.9688 17.3438C63.9688 18.6175 62.9365 19.6497 61.6628 19.6497C60.3891 19.6497 59.3568 18.6175 59.3568 17.3438C59.3568 16.07 60.3891 15.0366 61.6628 15.0366C62.9365 15.0366 63.9688 16.07 63.9688 17.3438Z" fill="black"/>
<path d="M89.3369 15.0352H73.1929C71.9191 15.0352 70.8869 16.0685 70.8869 17.3423C70.8869 18.616 71.9191 19.6483 73.1929 19.6483H89.3369C90.6107 19.6483 91.6429 18.616 91.6429 17.3423C91.6429 16.0685 90.6107 15.0352 89.3369 15.0352Z" fill="black"/>
<path d="M75.5 137.268C77.3345 137.268 79.0947 136.539 80.3923 135.241C81.6889 133.944 82.4179 132.184 82.4179 130.349C82.4179 128.514 81.6889 126.754 80.3923 125.456C79.0945 124.16 77.3343 123.431 75.5 123.431C73.6644 123.431 71.9044 124.16 70.6077 125.456C69.31 126.754 68.581 128.514 68.581 130.349C68.5833 132.183 69.3122 133.942 70.61 135.239C71.9066 136.536 73.6657 137.265 75.5 137.268ZM75.5 128.043C76.4327 128.043 77.2738 128.605 77.6297 129.466C77.9868 130.328 77.79 131.32 77.1308 131.979C76.4705 132.64 75.4783 132.837 74.6165 132.479C73.7548 132.122 73.1929 131.281 73.1929 130.349C73.1952 129.076 74.2263 128.044 75.5 128.043Z" fill="black"/>
<path d="M75.5 42.7119C67.5474 42.7119 59.9223 45.8704 54.2999 51.4942C48.6776 57.1166 45.5188 64.742 45.5188 72.6932C45.5188 80.6458 48.6773 88.2709 54.2999 93.8933C59.9223 99.5156 67.5477 102.674 75.5 102.674C83.4515 102.674 91.0766 99.5159 96.6989 93.8933C102.322 88.2709 105.481 80.6455 105.481 72.6932C105.472 64.7452 102.31 57.1245 96.6899 51.5033C91.0684 45.883 83.448 42.721 75.5 42.7119ZM100.868 72.6943C100.874 77.7149 99.3816 82.6222 96.5824 86.7888L96.2562 81.8449V58.1259C99.2627 62.3877 100.874 67.478 100.868 72.6943ZM91.6444 79.6134H87.0313C87.0313 78.7402 86.538 77.9414 85.7564 77.5511L82.5762 75.9616V75.9604C82.9768 72.7275 83.6874 69.5391 84.7002 66.4424C86.4729 61.2273 88.8018 58.0539 91.6433 56.9713L91.6444 79.6134ZM86.8848 84.2253H91.792L92.2864 91.6983L92.2852 91.6995C90.437 93.3337 88.3609 94.691 86.1238 95.729L86.8848 84.2253ZM71.7694 65.775L69.4634 70.3869L63.0878 70.3881L60.7818 65.7761L71.7694 65.775ZM63.8501 75H68.7023L69.9004 97.4385L69.8993 97.4396C67.4045 96.8743 65.0102 95.9336 62.7995 94.6484L63.8501 75ZM50.131 72.694C50.1253 67.4777 51.7366 62.3874 54.7429 58.1256V63.4687H54.7475C54.7463 63.8269 54.8276 64.1805 54.9867 64.501L59.3273 73.1802L58.3545 91.375C53.1119 86.5788 50.1286 79.7992 50.1309 72.6935L50.131 72.694ZM74.5505 98.0425L73.223 73.1803L77.5625 64.5011H77.5613C77.7204 64.1807 77.8028 63.8271 77.8016 63.4689H77.8062V54.2439C77.8062 52.9702 76.774 51.9379 75.5002 51.9379C74.2265 51.9379 73.1931 52.9702 73.1931 54.2439V61.1629H68.5812V54.2439C68.5812 52.9702 67.5489 51.9379 66.2752 51.9379C65.0015 51.9379 63.9681 52.9702 63.9681 54.2439V61.1629H59.3562V54.2439C59.3562 53.9223 59.2875 53.603 59.1559 53.3089C63.5366 49.6055 69.0436 47.4999 74.777 47.3362C80.5092 47.1725 86.1283 48.9601 90.713 52.406C79.5538 55.7637 77.8842 76.1892 77.8121 77.1343C77.7423 78.0681 78.2436 78.9505 79.0813 79.3693L82.4185 81.039L81.3931 97.3709C79.4625 97.832 77.4849 98.0644 75.5006 98.0632C75.1836 98.0632 74.8655 98.0552 74.5507 98.0438L74.5505 98.0425Z" fill="black"/>
</svg>
