<svg width="151" height="150" viewBox="0 0 151 150" fill="none" xmlns="http://www.w3.org/2000/svg">
<path d="M142.382 84.2256H27.0693C25.7956 84.2256 24.7622 85.2578 24.7622 86.5316V109.594H8.61902C7.34528 109.594 6.31189 110.626 6.31189 111.9V141.882C6.31189 142.493 6.55565 143.08 6.98824 143.513C7.42084 143.944 8.00677 144.188 8.61902 144.188H27.0693C27.6804 144.188 28.2675 143.944 28.7001 143.513C29.1327 143.08 29.3753 142.493 29.3753 141.882V139.576L77.5218 139.575C79.6069 139.574 81.6588 139.051 83.4898 138.054L106.069 125.738H142.382C142.994 125.738 143.581 125.495 144.013 125.063C144.445 124.63 144.688 124.043 144.688 123.432V86.5326C144.688 85.9204 144.445 85.3344 144.013 84.9018C143.581 84.4692 142.994 84.2266 142.382 84.2266L142.382 84.2256ZM24.7607 139.576H10.9238V114.208H24.7607V139.576ZM95.6064 88.8398L94.4529 93.4518L79.604 93.4529L78.4505 88.841L95.6064 88.8398ZM80.6249 107.29H95.6064L94.4529 111.902H79.604L78.9735 109.381L79.0788 109.276H79.0799C79.675 108.681 80.1935 108.013 80.6249 107.29ZM29.3729 88.8398H73.6962L74.5636 92.3121H74.5648C71.4851 91.471 68.188 92.1244 65.6635 94.0791L54.6086 102.677H29.372L29.3729 88.8398ZM29.3729 107.29H39.2343C36.2096 109.436 34.2983 112.818 34.0191 116.515H29.3729V107.29ZM81.2782 134.007V134.006C80.1258 134.635 78.8337 134.964 77.52 134.965H29.3735V121.127H34.9159C36.9484 121.125 38.5962 119.478 38.5985 117.446C38.6008 115.364 39.4282 113.369 40.8999 111.898C42.3716 110.427 44.3663 109.598 46.447 109.596H52.1165C52.8364 109.595 53.5356 109.356 54.1044 108.914L68.4976 97.7194C69.9957 96.5521 71.9869 96.234 73.7746 96.876C75.561 97.5168 76.8965 99.0286 77.3107 100.881C77.725 102.734 77.1631 104.671 75.8196 106.013L61.6185 120.214C60.6927 121.14 60.4146 122.533 60.9158 123.742C61.4171 124.952 62.597 125.741 63.9074 125.741H96.4357L81.2782 134.007ZM140.071 121.127H67.2274L75.1695 113.185L75.5655 114.768H75.5666C75.823 115.794 76.7454 116.515 77.8039 116.515H96.2542C97.3117 116.515 98.2352 115.794 98.4915 114.768L100.36 107.29H140.072L140.071 121.127ZM140.071 102.677H82.0399C82.1303 101.096 81.8499 99.5171 81.2205 98.0648H96.2525C97.3099 98.0648 98.2334 97.345 98.4898 96.3174L100.359 88.8399H140.07L140.071 102.677Z" fill="black"/>
<path d="M59.3545 42.7119C57.52 42.7119 55.7597 43.4409 54.4622 44.7387C53.1644 46.0364 52.4354 47.7967 52.4354 49.631C52.4354 51.4652 53.1644 53.2257 54.4622 54.5232C55.7599 55.821 57.5202 56.55 59.3545 56.55C61.1887 56.55 62.9492 55.821 64.2467 54.5232C65.5445 53.2255 66.2735 51.4652 66.2735 49.631C66.2712 47.7965 65.5411 46.0374 64.2445 44.741C62.9478 43.4444 61.1887 42.7142 59.3545 42.7119ZM59.3545 51.9369C58.4218 51.9369 57.5806 51.375 57.2236 50.5133C56.8665 49.6515 57.0645 48.6593 57.7237 48.0001C58.3829 47.341 59.3751 47.143 60.2368 47.5001C61.0985 47.8571 61.6605 48.6982 61.6605 49.6309C61.6593 50.9035 60.6271 51.9358 59.3545 51.9369Z" fill="black"/>
<path d="M142.382 5.81253H123.932C122.658 5.81253 121.624 6.84592 121.624 8.11966V10.4256H73.4779C71.3928 10.4268 69.3409 10.9498 67.5098 11.9477L44.9319 24.2626H15.5383C14.2646 24.2626 13.2324 25.296 13.2324 26.5698V72.6948C13.2324 73.307 13.4761 73.893 13.9076 74.3256C14.3402 74.7582 14.9272 75.0019 15.5383 75.0019H103.177C103.789 75.0019 104.376 74.7581 104.808 74.3256C105.24 73.893 105.484 73.307 105.484 72.6948V44.9817C108.457 44.7562 111.252 43.4722 113.361 41.3641C115.469 39.2561 116.754 36.4627 116.981 33.4882H121.627V38.1013C121.627 38.7124 121.871 39.2995 122.303 39.7321C122.736 40.1647 123.322 40.4073 123.934 40.4073H142.384C142.996 40.4073 143.583 40.1647 144.015 39.7321C144.447 39.2995 144.69 38.7124 144.69 38.1013V8.1189C144.69 7.50665 144.447 6.92071 144.015 6.48811C143.583 6.05552 142.996 5.81177 142.384 5.81177L142.382 5.81253ZM100.868 70.3887H17.8437V28.875H83.7705L79.1586 33.4869H29.3744C28.1006 33.4869 27.0684 34.5203 27.0684 35.7941V38.1001H24.7613C23.4875 38.1001 22.4553 39.1323 22.4553 40.406V58.8563C22.4553 59.4674 22.6979 60.0545 23.1305 60.4871C23.5631 60.9197 24.1502 61.1623 24.7613 61.1623H27.0673V63.4683H27.0684C27.0684 64.0806 27.311 64.6665 27.7436 65.0991C28.1762 65.5317 28.7621 65.7754 29.3744 65.7754H89.3363C89.9485 65.7754 90.5345 65.5317 90.9671 65.0991C91.3997 64.6665 91.6423 64.0806 91.6423 63.4683V61.1623H93.9494C94.5605 61.1623 95.1476 60.9197 95.5802 60.4871C96.0117 60.0545 96.2554 59.4674 96.2554 58.8563V47.4282L99.3521 45.0192H100.867L100.868 70.3887ZM71.167 54.2526C72.8401 56.3285 75.2606 57.6662 77.9076 57.9788C80.5558 58.2913 83.2212 57.5543 85.3314 55.9246L91.6417 51.0162V56.5519H89.3357C88.0619 56.5519 87.0297 57.5841 87.0297 58.8579V61.1638H31.6791V58.8579C31.6791 58.2456 31.4365 57.6597 31.0039 57.2271C30.5713 56.7945 29.9842 56.5519 29.3731 56.5519H27.0671V42.7138H29.3731C29.9842 42.7138 30.5713 42.4712 31.0039 42.0386C31.4365 41.606 31.6791 41.0201 31.6791 40.4078V38.1018H74.5434L71.917 40.7282C70.1477 42.494 69.0926 44.8515 68.9542 47.3476C68.8158 49.8437 69.6042 52.3028 71.1675 54.2528L71.167 54.2526ZM121.622 28.8765H116.08C114.047 28.8788 112.4 30.5256 112.397 32.5579C112.395 34.6396 111.567 36.6343 110.096 38.1062C108.625 39.5779 106.629 40.4053 104.549 40.4076H98.879C98.1592 40.4087 97.4599 40.6491 96.8912 41.0897L82.4991 52.2855C80.9999 53.4516 79.0087 53.7698 77.2221 53.1289C75.4345 52.4869 74.1003 50.9751 73.6848 49.1222C73.2705 47.2695 73.8325 45.333 75.176 43.9906L89.377 29.7895C90.304 28.8637 90.581 27.4709 90.0797 26.2613C89.5785 25.0517 88.3986 24.2632 87.0894 24.2632H54.5611L69.7163 15.9959V15.997C70.8699 15.3688 72.1608 15.0392 73.4745 15.038H121.621L121.622 28.8765ZM140.072 35.7955H126.235V10.4262H140.072V35.7955Z" fill="black"/>
</svg>
