<svg width="151" height="150" viewBox="0 0 151 150" fill="none" xmlns="http://www.w3.org/2000/svg">
<path d="M142.382 109.594H139.679C140.429 107.477 140.104 105.126 138.808 103.291C137.51 101.457 135.403 100.367 133.157 100.369H130.851L130.85 81.9183C130.838 74.6583 127.045 67.9279 120.838 64.1583C122.352 61.1553 123.377 57.9303 123.873 54.6037C124.512 50.1347 124.029 45.9678 122.509 42.3872L133.527 31.3666C135.507 32.3153 137.82 32.2684 139.76 31.2395C141.699 30.2107 143.036 28.3224 143.36 26.1504C143.685 23.9794 142.959 21.7822 141.405 20.2315L134.882 13.7062C133.329 12.1578 131.134 11.4369 128.965 11.7619C126.797 12.0881 124.911 13.4224 123.882 15.3587C122.852 17.295 122.802 19.6044 123.745 21.5842L112.725 32.6025C109.144 31.0827 104.979 30.5998 100.509 31.2384C93.9833 32.1711 87.5058 35.412 82.1248 40.411L81.3924 39.7827H81.3913C76.6329 35.687 70.2722 33.976 64.1014 35.1306L36.9136 40.1671C28.9669 41.6388 21.7856 45.8468 16.6177 52.0598C11.4482 58.2728 8.61814 66.0995 8.61814 74.1813V79.6127C8.58838 89.7028 12.9945 99.2966 20.6677 105.848C20.3243 107.067 20.1492 108.328 20.1492 109.594H8.61829C7.34455 109.594 6.31116 110.626 6.31116 111.9V116.513C6.31345 117.943 6.75746 119.337 7.58375 120.506C8.41001 121.673 9.57618 122.557 10.9242 123.035V125.738C10.9276 128.795 12.1441 131.726 14.3059 133.887C16.4677 136.049 19.3986 137.266 22.4551 137.269H128.542C131.6 137.266 134.531 136.049 136.692 133.887C138.854 131.726 140.069 128.795 140.073 125.738V123.035C141.421 122.557 142.588 121.673 143.413 120.506C144.24 119.337 144.684 117.944 144.686 116.513V111.9C144.686 111.289 144.442 110.702 144.011 110.269C143.578 109.838 142.991 109.594 142.38 109.594L142.382 109.594ZM128.361 23.4932C128.793 23.0606 129.037 22.4747 129.037 21.8624C129.037 21.2513 128.793 20.6642 128.361 20.2316C127.914 19.8025 127.659 19.2108 127.653 18.5917C127.647 17.9726 127.89 17.3763 128.329 16.938C128.766 16.4997 129.362 16.2571 129.981 16.2628C130.601 16.2685 131.192 16.5237 131.621 16.9701L138.142 23.491C138.591 23.9201 138.847 24.5107 138.854 25.1321C138.861 25.7523 138.618 26.3486 138.18 26.788C137.74 27.2263 137.144 27.4701 136.524 27.4632C135.903 27.4575 135.312 27.2012 134.883 26.7525C134.45 26.3199 133.863 26.0773 133.252 26.0773C132.64 26.0773 132.054 26.3199 131.621 26.7525L120.104 38.2721C119.159 37.0521 118.062 35.9558 116.842 35.0105L128.361 23.4932ZM104.235 35.5644C108.538 35.5644 112.456 36.94 115.314 39.7987C122.508 46.9925 120.313 60.8924 110.422 70.783C100.531 80.6743 86.6319 82.8692 79.4375 75.6753C76.0432 72.281 74.6228 67.2548 75.4435 61.5223C76.2972 55.5452 79.4536 49.5677 84.3298 44.6904C90.2911 38.7302 97.7079 35.5638 104.236 35.5638L104.235 35.5644ZM13.2304 79.6152V74.1838C13.2315 67.1801 15.6851 60.397 20.1644 55.0125C24.6436 49.6281 30.8668 45.9809 37.7539 44.7059L64.9417 39.6695C69.7402 38.7711 74.6888 40.1021 78.3884 43.287L78.9297 43.7505C74.5671 48.8672 71.737 54.8491 70.8766 60.8731C69.8477 68.0772 71.7292 74.4938 76.1752 78.9399C79.827 82.5917 84.8075 84.513 90.4621 84.513C91.7267 84.5107 92.9901 84.4192 94.242 84.2384C101.201 83.2439 108.105 79.6265 113.683 74.0475C115.487 72.2462 117.108 70.2708 118.526 68.1526C123.31 71.0949 126.228 76.3054 126.237 81.921V102.677C126.237 103.289 126.48 103.877 126.912 104.308C127.345 104.741 127.932 104.984 128.543 104.984H133.156C134.43 104.984 135.462 106.017 135.462 107.29C135.462 108.564 134.43 109.596 133.156 109.596H114.706C114.702 106.539 113.486 103.609 111.324 101.447C109.162 99.2853 106.231 98.0689 103.174 98.0654C102.858 98.0654 102.542 98.078 102.226 98.1043H102.227C101.03 95.3337 98.7952 93.1432 96.0017 92.0023C93.2082 90.8614 90.0782 90.8614 87.2848 92.0023C84.4901 93.1433 82.2551 95.3337 81.0592 98.1043H81.0454L79.8656 93.7842H79.8667C79.124 91.0742 77.4188 88.7281 75.0705 87.1856C72.7222 85.6418 69.892 85.0078 67.11 85.4015L49.0983 87.9753C53.3853 82.6837 59.3557 73.8624 59.3557 65.7782C59.3557 65.0996 59.057 64.4564 58.5397 64.0181C58.0224 63.5798 57.3392 63.3922 56.6697 63.5032C56.1181 63.5947 44.4222 65.6523 38.3513 75.0857L35.9057 71.4168C35.1996 70.3571 33.7668 70.071 32.707 70.7782C32.3832 70.9945 24.7614 76.2462 24.7614 91.1463V93.4534C24.7603 95.233 24.988 97.0057 25.4389 98.728C24.4169 99.5337 23.5129 100.478 22.753 101.533C16.6578 95.8772 13.2052 87.9302 13.2304 79.6152ZM33.9866 95.7592C32.5149 95.7592 31.0534 95.9938 29.6562 96.4573C29.4697 95.4662 29.3747 94.4603 29.3747 93.4532V91.1472C29.3747 83.0276 31.865 78.4787 33.609 76.2881L36.6805 80.8957V80.8945C37.1554 81.6075 37.9862 81.9977 38.8388 81.9084C39.6903 81.8203 40.4227 81.2664 40.7409 80.4722C43.5504 73.4468 50.4041 70.2081 54.4005 68.8712C52.3406 78.64 41.6997 89.3972 41.582 89.5165L41.5808 89.5153C40.8793 90.218 40.7053 91.2903 41.1494 92.1772C41.5934 93.0652 42.5559 93.5699 43.5377 93.4292L67.7616 89.9675C69.4313 89.7306 71.1295 90.1116 72.5384 91.0375C73.9483 91.9633 74.9714 93.3709 75.4166 94.9972L76.4202 98.6754C74.1371 99.4491 72.154 100.918 70.7475 102.878C69.3422 104.836 68.5846 107.185 68.5811 109.597H47.8249C47.8203 105.928 46.3612 102.411 43.7667 99.8166C41.1723 97.2233 37.6557 95.7631 33.9865 95.7595L33.9866 95.7592ZM73.1917 109.596C73.194 107.762 73.9241 106.004 75.2207 104.706C76.5185 103.41 78.2764 102.679 80.1107 102.677C80.7515 102.678 81.389 102.768 82.0047 102.94C82.6169 103.113 83.2738 103.024 83.8186 102.695C84.3633 102.367 84.7478 101.828 84.8817 101.207C85.3337 99.1341 86.7116 97.3819 88.6194 96.4561C90.5283 95.5291 92.7564 95.5291 94.6654 96.4561C96.5731 97.3819 97.951 99.134 98.4031 101.207C98.537 101.828 98.9215 102.367 99.4662 102.695C100.011 103.024 100.668 103.113 101.28 102.94C101.896 102.768 102.533 102.678 103.173 102.677C105.007 102.679 106.767 103.41 108.063 104.706C109.361 106.004 110.09 107.762 110.092 109.596H73.1917ZM33.9866 100.371C36.4322 100.375 38.7772 101.347 40.5075 103.077C42.2367 104.806 43.2095 107.151 43.2118 109.596H24.7615C24.7649 107.151 25.7376 104.806 27.4669 103.077C29.1961 101.347 31.5409 100.375 33.9866 100.371ZM128.542 132.659H22.4554C20.6209 132.657 18.863 131.927 17.5654 130.63C16.2688 129.332 15.5387 127.575 15.5364 125.74V123.434H135.463V125.74C135.461 127.575 134.731 129.333 133.434 130.63C132.137 131.927 130.378 132.657 128.544 132.659H128.542ZM140.073 116.515C140.072 117.788 139.041 118.82 137.767 118.821H13.2292C11.9566 118.82 10.9243 117.788 10.9232 116.515V114.209H140.073L140.073 116.515Z" fill="black"/>
</svg>
