<svg width="151" height="150" viewBox="0 0 151 150" fill="none" xmlns="http://www.w3.org/2000/svg">
<path d="M41.5742 67.623L45.4332 69.5548C45.7949 72.3335 47.1533 74.8854 49.2568 76.7361C51.3613 78.5854 54.0655 79.6085 56.8672 79.612H93.7666C96.8235 79.6085 99.7543 78.3932 101.916 76.2314C104.077 74.0696 105.294 71.1376 105.298 68.081V54.7852C106.762 53.4714 107.6 51.598 107.604 49.6307V42.7117C107.605 40.622 107.036 38.57 105.96 36.7779L128.01 9.56959L128.011 9.57074C128.57 8.87951 128.684 7.92736 128.3 7.12512C127.917 6.32289 127.107 5.81134 126.217 5.81134H114.344C113.649 5.81134 112.99 6.12604 112.552 6.66622L92.6842 31.1807H83.9443L101.458 9.56954L101.459 9.57068C102.019 8.87945 102.132 7.92845 101.749 7.12621C101.367 6.32283 100.557 5.81128 99.6673 5.81128H87.793C87.0983 5.81242 86.4403 6.12599 86.002 6.66616L66.134 31.1806H60.5447C53.1666 31.1955 46.3472 35.1128 42.6165 41.4779L36.7709 51.4995V51.5006C35.1642 54.2529 34.7682 57.5478 35.678 60.602C36.5878 63.6576 38.7225 66.1992 41.5742 67.623ZM40.0991 59.286C39.6207 57.7068 39.7306 56.0083 40.4081 54.5024L54.3355 62.0979L52.4175 65.4545V65.4556C51.8087 66.5176 50.4777 66.9193 49.3826 66.3723L43.6366 63.4976C41.9211 62.6496 40.6381 61.1228 40.0991 59.286ZM47.3375 42.6589L60.0107 54.1808H60.0118C58.7095 55.1318 57.6235 56.3471 56.8223 57.7456L56.6243 58.0912L42.6969 50.4957L46.6016 43.8008C46.8304 43.4083 47.0777 43.0285 47.3375 42.6589ZM77.3785 35.7935L83.0123 43.1153L77.5408 49.8662L65.8141 35.7935H77.3785ZM73.2643 51.9375L66.8316 51.9364C66.0946 51.9375 65.3588 52.0096 64.6343 52.1515L50.5045 39.3054H50.5056C53.1686 37.1917 56.4291 35.9682 59.8255 35.8103L73.2643 51.9375ZM100.686 68.0815V68.0804C100.683 69.9149 99.9532 71.6728 98.6566 72.9703C97.3588 74.267 95.6009 74.9971 93.7666 74.9994H56.8672C55.5912 74.9982 54.3415 74.6446 53.2531 73.9774C52.166 73.3102 51.2847 72.3558 50.7046 71.2194C53.0815 71.121 55.2409 69.8083 56.4221 67.7427L60.8281 60.033C61.4335 58.9755 62.3078 58.0966 63.3629 57.4844C64.417 56.8721 65.614 56.5505 66.8329 56.5494H72.1256L71.5695 57.236C70.0131 59.1564 69.5999 61.7609 70.4846 64.0692C71.3692 66.3775 73.4189 68.0381 75.86 68.426C78.301 68.8128 80.7637 67.8687 82.3202 65.9483L89.9374 56.5493H100.687L100.686 68.0815ZM102.992 42.7122V49.6312V49.6301C102.99 50.4541 102.551 51.2163 101.838 51.6294C101.488 51.8331 101.09 51.9384 100.686 51.9361H93.6737L102.713 40.7816V40.7827C102.896 41.4087 102.99 42.0588 102.991 42.7111L102.992 42.7122ZM115.443 10.4241H121.38L78.7355 63.0442C77.9287 64.0147 76.4902 64.1566 75.5094 63.3612C74.5285 62.5659 74.3695 61.1296 75.1523 60.1397L115.443 10.4241ZM85.9965 39.4315L83.1972 35.7935H88.9456L85.9965 39.4315ZM88.8918 10.4241H94.8303L78.0086 31.1804H72.0701L88.8918 10.4241Z" fill="black"/>
<path d="M142.382 102.674H142.375C142.375 102.65 142.373 102.624 142.373 102.604C142.315 97.0034 135.365 92.4337 121.713 89.0212C109.338 85.9277 92.9225 84.225 75.4909 84.225C58.0592 84.225 41.6442 85.929 29.2692 89.0223C15.6162 92.4348 8.66644 97.0046 8.60814 102.605C8.56008 103.596 8.47539 110.716 15.2582 118.04C19.8268 122.974 26.4781 126.899 35.0269 129.707C42.429 132.139 51.2902 133.733 61.4787 134.477L61.4799 137.268C61.4822 139.103 62.2123 140.862 63.5089 142.158C64.8067 143.455 66.5646 144.185 68.3989 144.187H82.237C84.0714 144.185 85.8293 143.455 87.1269 142.158C88.4235 140.862 89.1537 139.102 89.1548 137.268V134.501C99.4878 133.769 108.466 132.166 115.951 129.707C124.5 126.899 131.151 122.974 135.721 118.04C142.2 111.043 142.413 104.237 142.377 102.778C142.378 102.744 142.381 102.709 142.381 102.674L142.382 102.674ZM30.3887 93.4958C42.4071 90.4917 58.4243 88.837 75.4912 88.837C92.5581 88.837 108.576 90.4918 120.594 93.4958C133.263 96.6633 137.76 100.421 137.76 102.674C137.76 102.715 137.76 102.748 137.762 102.785C137.662 104.373 135.391 106.66 129.743 108.96C127.705 105.899 122.274 103.436 113.294 101.486C103.121 99.2783 89.6354 98.0617 75.3192 98.0617C61.0027 98.0617 47.5159 99.2781 37.3446 101.487C28.4788 103.412 23.0714 105.836 20.9738 108.844C15.4039 106.529 13.2318 104.239 13.2318 102.674H13.2226C13.2226 100.42 17.7179 96.663 30.39 93.4954L30.3887 93.4958ZM125.038 110.622C123.687 111.038 122.211 111.45 120.603 111.852C108.584 114.857 92.5666 116.512 75.5009 116.512C58.4343 116.512 42.4159 114.857 30.3983 111.853C28.6863 111.425 27.1288 110.987 25.7062 110.542C27.4102 109.285 31.2257 107.535 38.322 105.995C48.181 103.854 61.32 102.674 75.3181 102.674C89.3152 102.674 102.454 103.854 112.314 105.995C119.566 107.568 123.39 109.36 125.038 110.623L125.038 110.622ZM84.544 137.268C84.5428 138.542 83.5106 139.573 82.238 139.574H68.3999C67.1273 139.573 66.095 138.542 66.0939 137.268V134.75C69.1208 134.891 72.253 134.961 75.4918 134.962C78.6069 134.962 81.6248 134.897 84.5439 134.767L84.544 137.268ZM132.187 115.066C120.291 127.698 94.7891 130.349 75.4883 130.349C40.5254 130.349 25.3584 122.039 18.793 115.066C17.8031 114.021 16.9093 112.888 16.1231 111.68C19.4292 113.408 23.8135 114.958 29.2791 116.327C41.6512 119.421 58.0656 121.124 75.4979 121.124C92.9295 121.124 109.345 119.42 121.72 116.327C127.168 114.965 131.543 113.421 134.846 111.695V111.696C134.062 112.897 133.172 114.024 132.186 115.065L132.187 115.066Z" fill="black"/>
</svg>
