<svg width="151" height="150" viewBox="0 0 151 150" fill="none" xmlns="http://www.w3.org/2000/svg">
<path d="M33.9863 38.1006H38.5994C39.8731 38.1006 40.9054 39.1329 40.9054 40.4066C40.9054 41.6804 39.8731 42.7126 38.5994 42.7126H31.6804C30.4066 42.7126 29.3744 43.746 29.3744 45.0197C29.3744 46.2935 30.4066 47.3257 31.6804 47.3257H33.9864V49.6317C33.9864 50.9054 35.0197 51.9377 36.2935 51.9377C37.5672 51.9377 38.5995 50.9054 38.5995 49.6317V47.3257C41.0714 47.3257 43.3555 46.0062 44.5916 43.866C45.8275 41.7249 45.8275 39.088 44.5916 36.947C43.3556 34.8069 41.0712 33.4873 38.5995 33.4873H33.9864C32.7126 33.4873 31.6804 32.4551 31.6804 31.1813C31.6804 29.9076 32.7126 28.8754 33.9864 28.8754H40.9054C42.1792 28.8754 43.2114 27.8431 43.2114 26.5694C43.2114 25.2956 42.1792 24.2622 40.9054 24.2622H38.5994V21.9563C38.5994 20.6825 37.5672 19.6503 36.2934 19.6503C35.0197 19.6503 33.9863 20.6825 33.9863 21.9563V24.2622C31.5144 24.2622 29.2314 25.5817 27.9954 27.7219C26.7594 29.8631 26.7594 32.4999 27.9954 34.641C29.2314 36.7821 31.5145 38.1006 33.9863 38.1006Z" fill="black"/>
<path d="M63.9688 28.8751H80.1128C81.3866 28.8751 82.4188 27.8428 82.4188 26.5691C82.4188 25.2954 81.3866 24.262 80.1128 24.262H63.9688C62.695 24.262 61.6628 25.2954 61.6628 26.5691C61.6628 27.8428 62.695 28.8751 63.9688 28.8751Z" fill="black"/>
<path d="M52.4375 47.3262H68.5816C69.8553 47.3262 70.8875 46.294 70.8875 45.0203C70.8875 43.7465 69.8553 42.7131 68.5816 42.7131H52.4375C51.1638 42.7131 50.1315 43.7465 50.1315 45.0203C50.1315 46.294 51.1638 47.3262 52.4375 47.3262Z" fill="black"/>
<path d="M52.4375 38.1007H80.1128C81.3865 38.1007 82.4188 37.0684 82.4188 35.7947C82.4188 34.5209 81.3865 33.4875 80.1128 33.4875H52.4375C51.1638 33.4875 50.1315 34.5209 50.1315 35.7947C50.1315 37.0684 51.1638 38.1007 52.4375 38.1007Z" fill="black"/>
<path d="M29.375 61.1631H80.1113C81.3851 61.1631 82.4173 60.1309 82.4173 58.8571C82.4173 57.5834 81.3851 56.5511 80.1113 56.5511H29.375C28.1013 56.5511 27.069 57.5834 27.069 58.8571C27.069 60.1309 28.1013 61.1631 29.375 61.1631Z" fill="black"/>
<path d="M82.417 68.0802C82.417 67.4679 82.1744 66.882 81.7418 66.4494C81.3092 66.0168 80.7233 65.7742 80.111 65.7742H29.3747C28.1009 65.7742 27.0687 66.8064 27.0687 68.0802C27.0687 69.3539 28.1009 70.3861 29.3747 70.3861H80.111C80.7233 70.3861 81.3092 70.1435 81.7418 69.7109C82.1744 69.2783 82.417 68.6913 82.417 68.0802Z" fill="black"/>
<path d="M50.1318 75H38.6009C37.3271 75 36.2949 76.0322 36.2949 77.306C36.2949 78.5797 37.3271 79.612 38.6009 79.612H50.1318C51.4056 79.612 52.4378 78.5797 52.4378 77.306C52.4378 76.0322 51.4056 75 50.1318 75Z" fill="black"/>
<path d="M50.1318 84.2256H38.6009C37.3271 84.2256 36.2949 85.2578 36.2949 86.5316C36.2949 87.8053 37.3271 88.8376 38.6009 88.8376H50.1318C51.4056 88.8376 52.4378 87.8053 52.4378 86.5316C52.4378 85.2578 51.4056 84.2256 50.1318 84.2256Z" fill="black"/>
<path d="M50.1318 93.4512H38.6009C37.3271 93.4512 36.2949 94.4834 36.2949 95.7572C36.2949 97.0309 37.3271 98.0631 38.6009 98.0631H50.1318C51.4056 98.0631 52.4378 97.0309 52.4378 95.7572C52.4378 94.4834 51.4056 93.4512 50.1318 93.4512Z" fill="black"/>
<path d="M80.1113 75H73.1923C71.9185 75 70.8863 76.0322 70.8863 77.306C70.8863 78.5797 71.9185 79.612 73.1923 79.612H80.1113C81.3851 79.612 82.4173 78.5797 82.4173 77.306C82.4173 76.0322 81.3851 75 80.1113 75Z" fill="black"/>
<path d="M80.1113 84.2256H73.1923C71.9185 84.2256 70.8863 85.2578 70.8863 86.5316C70.8863 87.8053 71.9185 88.8376 73.1923 88.8376H80.1113C81.3851 88.8376 82.4173 87.8053 82.4173 86.5316C82.4173 85.2578 81.3851 84.2256 80.1113 84.2256Z" fill="black"/>
<path d="M70.8858 121.125H38.5977C37.3239 121.125 36.2917 122.158 36.2917 123.432C36.2917 124.706 37.3239 125.738 38.5977 125.738H70.8858C72.1595 125.738 73.1917 124.706 73.1917 123.432C73.1917 122.158 72.1595 121.125 70.8858 121.125Z" fill="black"/>
<path d="M57.0488 26.5693C57.0488 27.8431 56.0154 28.8753 54.7417 28.8753C53.4679 28.8753 52.4357 27.8431 52.4357 26.5693C52.4357 25.2956 53.4679 24.2622 54.7417 24.2622C56.0154 24.2622 57.0488 25.2956 57.0488 26.5693Z" fill="black"/>
<path d="M31.6807 77.3057C31.6807 78.5795 30.6484 79.6117 29.3747 79.6117C28.1009 79.6117 27.0687 78.5795 27.0687 77.3057C27.0687 76.032 28.1009 74.9998 29.3747 74.9998C30.6484 74.9998 31.6807 76.032 31.6807 77.3057Z" fill="black"/>
<path d="M31.6807 86.5313C31.6807 87.8051 30.6484 88.8373 29.3747 88.8373C28.1009 88.8373 27.0687 87.8051 27.0687 86.5313C27.0687 85.2576 28.1009 84.2253 29.3747 84.2253C30.6484 84.2253 31.6807 85.2576 31.6807 86.5313Z" fill="black"/>
<path d="M31.6807 95.7569C31.6807 97.0307 30.6484 98.0629 29.3747 98.0629C28.1009 98.0629 27.0687 97.0307 27.0687 95.7569C27.0687 94.4832 28.1009 93.4509 29.3747 93.4509C30.6484 93.4509 31.6807 94.4832 31.6807 95.7569Z" fill="black"/>
<path d="M50.1318 102.674H38.6009C37.3271 102.674 36.2949 103.707 36.2949 104.981C36.2949 106.255 37.3271 107.287 38.6009 107.287H50.1318C51.4056 107.287 52.4378 106.255 52.4378 104.981C52.4378 103.707 51.4056 102.674 50.1318 102.674Z" fill="black"/>
<path d="M31.6807 104.982C31.6807 106.256 30.6484 107.288 29.3747 107.288C28.1009 107.288 27.0687 106.256 27.0687 104.982C27.0687 103.709 28.1009 102.675 29.3747 102.675C30.6484 102.675 31.6807 103.709 31.6807 104.982Z" fill="black"/>
<path d="M50.1318 111.899H38.6009C37.3271 111.899 36.2949 112.933 36.2949 114.207C36.2949 115.48 37.3271 116.513 38.6009 116.513H50.1318C51.4056 116.513 52.4378 115.48 52.4378 114.207C52.4378 112.933 51.4056 111.899 50.1318 111.899Z" fill="black"/>
<path d="M31.6807 114.205C31.6807 115.479 30.6484 116.511 29.3747 116.511C28.1009 116.511 27.0687 115.479 27.0687 114.205C27.0687 112.931 28.1009 111.898 29.3747 111.898C30.6484 111.898 31.6807 112.931 31.6807 114.205Z" fill="black"/>
<path d="M107.788 77.3057C102.065 77.2988 96.4596 78.9399 91.6441 82.0333V8.11731C91.6441 7.50506 91.4014 6.91912 90.9688 6.48653C90.5362 6.05393 89.9503 5.81018 89.3381 5.81018H20.1506C18.8768 5.81018 17.8446 6.84357 17.8446 8.11731V141.881C17.8446 142.731 18.3126 143.513 19.0622 143.913C19.8118 144.315 20.7216 144.272 21.43 143.799L27.0696 140.04L32.7093 143.799H32.7081C33.4829 144.316 34.4923 144.316 35.267 143.799L40.9067 140.04L46.5463 143.799C47.3211 144.316 48.3305 144.316 49.1052 143.799L54.7437 140.04L60.3834 143.799C61.1581 144.316 62.1675 144.316 62.9423 143.799L68.5819 140.04L74.2216 143.799C74.9963 144.316 76.0057 144.316 76.7805 143.799L82.419 140.04L88.0586 143.799C88.7659 144.272 89.6768 144.315 90.4264 143.913C91.176 143.513 91.644 142.731 91.644 141.881V132.54C99.5975 137.625 109.481 138.666 118.319 135.352C127.157 132.038 133.919 124.754 136.567 115.693C139.215 106.633 137.441 96.8539 131.778 89.3009C126.116 81.7491 117.227 77.3041 107.788 77.3053L107.788 77.3057ZM87.0318 137.572L83.6982 135.35C82.9234 134.834 81.914 134.834 81.1392 135.35L75.5008 139.109L69.8611 135.35C69.0864 134.834 68.077 134.834 67.3022 135.35L61.6626 139.109L56.0229 135.35C55.2482 134.834 54.2388 134.834 53.4651 135.35L47.8255 139.109L42.1858 135.35C41.4111 134.834 40.4017 134.834 39.6269 135.35L33.9873 139.109L28.3488 135.35C27.5741 134.834 26.5647 134.834 25.7899 135.35L22.4562 137.572V10.4239H87.0324V85.6729C84.62 87.988 82.6103 90.6888 81.0837 93.6642C80.7804 93.5223 80.4485 93.449 80.1132 93.449H73.1942C71.9204 93.449 70.8882 94.4813 70.8882 95.755C70.8882 97.0288 71.9204 98.061 73.1942 98.061H79.2607C78.772 99.567 78.4046 101.11 78.162 102.673H73.1942C71.9204 102.673 70.8882 103.706 70.8882 104.98C70.8882 106.254 71.9204 107.286 73.1942 107.286H77.8072C77.8072 108.83 77.9251 110.372 78.162 111.898H73.1941C71.9204 111.898 70.8881 112.931 70.8881 114.205C70.8881 115.479 71.9204 116.511 73.1941 116.511H79.2606C80.7919 121.218 83.4606 125.473 87.0322 128.899L87.0318 137.572ZM107.788 132.657C101.06 132.657 94.6068 129.984 89.8496 125.227C85.0924 120.469 82.419 114.016 82.419 107.288C82.419 100.56 85.0924 94.1069 89.8496 89.3496C94.6068 84.5924 101.06 81.9191 107.788 81.9191C114.516 81.9191 120.969 84.5924 125.727 89.3496C130.484 94.1069 133.157 100.56 133.157 107.288C133.149 114.014 130.473 120.463 125.717 125.218C120.962 129.974 114.513 132.649 107.788 132.657L107.788 132.657Z" fill="black"/>
<path d="M115.895 93.7793C115.369 93.4646 114.741 93.3707 114.148 93.5195C113.554 93.6671 113.045 94.0459 112.73 94.5701L98.8933 117.632H98.8922C98.2376 118.725 98.5912 120.142 99.683 120.797C100.776 121.452 102.193 121.098 102.847 120.006L116.684 96.9436H116.685C117 96.4183 117.093 95.7912 116.945 95.1973C116.796 94.6033 116.419 94.094 115.895 93.7793Z" fill="black"/>
<path d="M105.482 98.0625C105.482 96.228 104.753 94.4677 103.456 93.1702C102.158 91.8724 100.398 91.1434 98.5634 91.1434C96.7291 91.1434 94.9687 91.8724 93.6711 93.1702C92.3733 94.468 91.6443 96.2282 91.6443 98.0625C91.6443 99.8968 92.3733 101.657 93.6711 102.955C94.9689 104.253 96.7291 104.982 98.5634 104.982C100.398 104.979 102.157 104.249 103.453 102.952C104.75 101.656 105.48 99.8968 105.482 98.0625ZM98.5634 100.368C97.6307 100.368 96.7896 99.8065 96.4325 98.9448C96.0754 98.0831 96.2734 97.0909 96.9326 96.4317C97.5918 95.7725 98.584 95.5745 99.4457 95.9316C100.307 96.2887 100.869 97.1298 100.869 98.0625C100.868 99.3351 99.836 100.367 98.5634 100.368Z" fill="black"/>
<path d="M117.014 109.594C115.178 109.594 113.419 110.323 112.121 111.62C110.824 112.918 110.095 114.677 110.095 116.513C110.095 118.347 110.824 120.108 112.121 121.405C113.419 122.703 115.178 123.432 117.014 123.432C118.848 123.432 120.608 122.703 121.906 121.405C123.204 120.107 123.933 118.347 123.933 116.513C123.93 114.678 123.2 112.919 121.904 111.623C120.606 110.326 118.848 109.596 117.014 109.594ZM117.014 118.819C116.081 118.819 115.24 118.257 114.883 117.395C114.526 116.533 114.724 115.541 115.383 114.882C116.042 114.223 117.034 114.025 117.896 114.382C118.758 114.739 119.32 115.58 119.32 116.513C119.318 117.785 118.286 118.818 117.014 118.819Z" fill="black"/>
</svg>
